<svg width="600" height="621" viewBox="0 0 600 621" fill="none" xmlns="http://www.w3.org/2000/svg">
<g clip-path="url(#clip0_28_14)">
<mask id="mask0_28_14" style="mask-type:luminance" maskUnits="userSpaceOnUse" x="0" y="0" width="600" height="621">
<path d="M600 0H0V620.979H600V0Z" fill="white"/>
</mask>
<g mask="url(#mask0_28_14)">
<path d="M178.864 28.5524L137.429 13.8979L96.3972 28.3538C91.1581 30.7902 86.5637 32.2489 86.5637 37.0545V60.9804C86.5637 77.5958 90.986 94.0615 100.081 108.597C107.736 120.829 119.587 133.425 137.832 141.431C154.604 136.066 167.124 121.762 174.778 109.53C183.874 94.993 188.295 78.5301 188.295 61.9147V40.3986C188.295 33.5454 184.607 30.2 178.864 28.5524Z" fill="#F2F1ED"/>
<path d="M151.192 67.1762C151.192 60.8406 146.055 55.7035 139.717 55.7035C133.382 55.7035 128.246 60.8406 128.246 67.1762C128.246 72.4196 131.786 76.793 136.589 78.1608V95.3147H142.849V78.1608C147.653 76.7916 151.192 72.4196 151.192 67.1762Z" fill="#E7E7E1"/>
<path d="M290.635 572.516V615.959H354.166H424.238V572.516H290.635Z" fill="#F2F1ED"/>
<path d="M285.029 560.371V572.516H428.909V560.371H354.166H285.029Z" fill="#E7E7E1"/>
<path d="M356.969 615.961H424.236V572.516H428.908V560.369H354.166V571.392L356.969 615.961Z" fill="#E7E7E1"/>
<path d="M309.32 579.522V586.061H336.414V579.522H309.32Z" fill="#D9D9D0"/>
<path d="M340.624 608.046H305.832V594.238H340.624V608.046Z" fill="white"/>
<path d="M311.189 516.982V560.427H374.719H444.792V516.982H311.189Z" fill="#F2F1ED"/>
<path d="M305.583 504.838V516.983H449.466V504.838H374.72H305.583Z" fill="#E7E7E1"/>
<path d="M377.524 560.428H444.792V516.983H449.466V504.838H374.72V515.862L377.524 560.428Z" fill="#E7E7E1"/>
<path d="M329.874 523.989V530.529H356.971V523.989H329.874Z" fill="#D9D9D0"/>
<path d="M361.18 552.513H326.389V538.706H361.18V552.513Z" fill="white"/>
<path d="M598.794 616.294C598.794 616.495 464.738 616.657 299.411 616.657C134.027 616.657 0 616.495 0 616.294C0 616.092 134.027 615.93 299.411 615.93C464.738 615.93 598.794 616.092 598.794 616.294Z" fill="#08322F"/>
<path d="M475.211 275.874H225.371C220.305 275.874 216.196 271.766 216.196 266.699V36.8419C216.196 31.7748 220.305 27.6671 225.371 27.6671H475.211C480.28 27.6671 484.386 31.7748 484.386 36.8419V266.699C484.386 271.766 480.28 275.874 475.211 275.874Z" fill="white"/>
<path d="M475.211 275.874C475.211 275.874 475.434 275.85 475.87 275.822C476.308 275.793 476.961 275.702 477.79 275.463C478.611 275.204 479.618 274.783 480.643 274.013C481.659 273.249 482.712 272.14 483.421 270.608C484.214 269.096 484.375 267.186 484.297 265.098C484.291 263.007 484.285 260.722 484.278 258.245C484.269 253.291 484.259 247.576 484.246 241.144C484.218 215.403 484.179 178.169 484.13 132.164C484.116 109.157 484.101 83.9594 484.084 56.9077C484.073 50.151 484.06 43.2783 484.048 36.2951C483.885 32.9077 481.548 29.7189 478.306 28.5496C476.701 27.8811 474.944 27.9888 473.144 27.9846C471.357 27.986 469.562 27.986 467.761 27.9874C453.35 27.993 438.519 27.9972 423.311 28.0028C362.477 28.0112 295.596 28.0209 225.396 28.0307C223.283 28.0321 221.194 28.807 219.607 30.1888C218.007 31.5552 216.937 33.516 216.66 35.593C216.515 36.614 216.572 37.716 216.561 38.8056V42.0699C216.559 44.2447 216.559 46.414 216.559 48.5818C216.559 57.2503 216.559 65.8629 216.558 74.4112C216.557 91.5091 216.555 108.355 216.552 124.909C216.545 158.015 216.538 189.951 216.531 220.372C216.526 235.583 216.522 250.415 216.516 264.827C216.523 265.722 216.492 266.643 216.555 267.495C216.652 268.354 216.827 269.208 217.159 270.007C217.804 271.61 218.927 273.001 220.333 273.982C221.744 274.957 223.428 275.51 225.133 275.548C226.891 275.552 228.642 275.558 230.386 275.564C237.376 275.566 244.256 275.569 251.02 275.573C278.073 275.589 303.273 275.604 326.278 275.617C372.285 275.666 409.515 275.705 435.253 275.733C448.113 275.762 458.098 275.786 464.881 275.801C468.262 275.817 470.842 275.829 472.586 275.838C474.322 275.849 475.211 275.874 475.211 275.874C475.211 275.874 474.322 275.899 472.586 275.912C470.842 275.92 468.262 275.931 464.881 275.948C458.098 275.964 448.113 275.987 435.253 276.017C409.515 276.043 372.285 276.082 326.278 276.133C303.273 276.145 278.073 276.161 251.02 276.176C244.256 276.18 237.376 276.183 230.386 276.186C228.636 276.183 226.88 276.179 225.115 276.176C223.294 276.137 221.485 275.544 219.973 274.502C218.466 273.453 217.262 271.964 216.569 270.245C216.211 269.389 216.021 268.473 215.92 267.551C215.85 266.61 215.885 265.733 215.876 264.827C215.871 250.415 215.866 235.583 215.86 220.372C215.853 189.951 215.846 158.015 215.839 124.909C215.838 108.355 215.836 91.5091 215.834 74.4112C215.834 65.8629 215.834 57.2503 215.832 48.5818C215.832 46.414 215.832 44.2447 215.832 42.0699V38.8056C215.846 37.7216 215.782 36.6321 215.938 35.4909C216.241 33.2419 217.399 31.1175 219.13 29.6391C220.845 28.1426 223.115 27.3021 225.396 27.3021C295.596 27.3119 362.477 27.323 423.311 27.3314C438.519 27.337 453.35 27.3412 467.761 27.3468C469.562 27.3468 471.357 27.3482 473.144 27.3482C474.894 27.3538 476.801 27.2405 478.527 27.958C482 29.214 484.498 32.6293 484.669 36.2573C484.676 43.2531 484.683 50.1384 484.688 56.9077C484.673 83.9594 484.659 109.157 484.645 132.164C484.596 178.169 484.555 215.403 484.529 241.144C484.516 247.576 484.505 253.291 484.495 258.245C484.49 260.722 484.484 263.007 484.478 265.098C484.548 267.169 484.371 269.152 483.554 270.673C482.822 272.222 481.744 273.338 480.709 274.102C479.666 274.871 478.643 275.285 477.811 275.533C476.972 275.764 476.312 275.842 475.873 275.86C475.434 275.875 475.211 275.874 475.211 275.874Z" fill="#08322F"/>
<path d="M236.436 44.8685C236.436 47.4294 234.358 49.5049 231.797 49.5049C229.238 49.5049 227.162 47.4294 227.162 44.8685C227.162 42.3077 229.238 40.2322 231.797 40.2322C234.358 40.2322 236.436 42.3077 236.436 44.8685Z" fill="#08322F"/>
<path d="M249.978 44.8685C249.978 47.4294 247.902 49.5049 245.341 49.5049C242.78 49.5049 240.705 47.4294 240.705 44.8685C240.705 42.3077 242.78 40.2322 245.341 40.2322C247.902 40.2322 249.978 42.3077 249.978 44.8685Z" fill="#08322F"/>
<path d="M263.517 44.8685C263.517 47.4294 261.443 49.5049 258.881 49.5049C256.322 49.5049 254.248 47.4294 254.248 44.8685C254.248 42.3077 256.322 40.2322 258.881 40.2322C261.443 40.2322 263.517 42.3077 263.517 44.8685Z" fill="#08322F"/>
<path d="M484.386 58.021C484.386 58.2224 424.345 58.3846 350.298 58.3846C276.225 58.3846 216.196 58.2224 216.196 58.021C216.196 57.8196 276.225 57.6573 350.298 57.6573C424.345 57.6573 484.386 57.8196 484.386 58.021Z" fill="#08322F"/>
<path d="M391.633 147.146C391.633 147.146 391.721 146.985 391.9 146.678L392.051 146.422L392.195 146.089C392.295 145.845 392.425 145.569 392.501 145.23C392.544 145.063 392.598 144.887 392.64 144.699C392.669 144.508 392.698 144.307 392.73 144.096C392.771 143.885 392.78 143.662 392.786 143.429C392.787 143.196 392.821 142.954 392.799 142.701C392.784 141.687 392.576 140.529 392.221 139.266C391.508 136.731 390.042 133.821 387.963 130.719C385.886 127.609 383.148 124.327 379.864 120.956C376.578 117.584 372.703 114.161 368.319 110.783C363.93 107.41 359.022 104.081 353.601 101.021C350.889 99.4939 348.048 98.0402 345.076 96.7053C342.108 95.3657 339.003 94.1597 335.763 93.18C332.525 92.217 329.14 91.4452 325.651 91.3102C323.912 91.254 322.139 91.3414 320.44 91.8143C319.592 92.0512 318.774 92.3916 318.019 92.8469C317.279 93.3259 316.619 93.9246 316.099 94.6429C315.607 95.3791 315.274 96.2072 315.081 97.0675C314.917 97.9342 314.883 98.8203 314.956 99.6977C315.103 101.455 315.642 103.149 316.298 104.759C317.641 107.982 319.543 110.889 321.574 113.588C323.623 116.283 325.837 118.774 328.127 121.091C330.415 123.41 332.768 125.567 335.146 127.576C339.904 131.59 344.734 135.032 349.425 137.97C354.12 140.903 358.681 143.34 362.986 145.244C367.29 147.146 371.322 148.569 374.961 149.431C378.594 150.298 381.832 150.657 384.454 150.442C385.763 150.335 386.921 150.127 387.874 149.787C388.118 149.721 388.335 149.604 388.553 149.521C388.77 149.433 388.975 149.349 389.158 149.236C389.345 149.133 389.523 149.034 389.692 148.94C389.854 148.836 389.998 148.724 390.141 148.625C390.432 148.436 390.646 148.218 390.839 148.039L391.101 147.79L391.289 147.558C391.515 147.283 391.633 147.146 391.633 147.146C391.633 147.146 391.526 147.291 391.306 147.572L391.119 147.807L390.86 148.061C390.669 148.244 390.457 148.465 390.165 148.659C390.023 148.76 389.88 148.875 389.718 148.982C389.548 149.076 389.37 149.177 389.182 149.283C388.999 149.396 388.793 149.484 388.575 149.573C388.356 149.658 388.139 149.776 387.895 149.845C386.937 150.192 385.775 150.409 384.46 150.522C381.826 150.751 378.577 150.402 374.935 149.543C371.285 148.689 367.241 147.275 362.927 145.378C358.611 143.479 354.04 141.045 349.334 138.115C344.634 135.18 339.791 131.738 335.022 127.721C332.64 125.71 330.282 123.552 327.987 121.229C325.69 118.909 323.469 116.413 321.413 113.71C319.374 111.002 317.462 108.084 316.107 104.835C315.445 103.213 314.9 101.504 314.75 99.7142C314.676 98.8216 314.711 97.9156 314.878 97.0245C315.077 96.141 315.42 95.2877 315.93 94.5254C316.466 93.7825 317.149 93.1641 317.909 92.6715C318.685 92.2024 319.522 91.8569 320.385 91.6153C322.114 91.1345 323.906 91.0491 325.658 91.105C329.173 91.2425 332.573 92.0182 335.822 92.9854C339.071 93.9696 342.183 95.1819 345.157 96.5249C348.134 97.8649 350.98 99.325 353.695 100.856C359.122 103.925 364.033 107.263 368.424 110.646C372.81 114.035 376.683 117.469 379.968 120.853C383.251 124.235 385.986 127.533 388.058 130.656C390.134 133.772 391.592 136.694 392.298 139.244C392.65 140.515 392.852 141.68 392.859 142.7C392.882 142.953 392.845 143.199 392.843 143.431C392.835 143.666 392.824 143.892 392.782 144.102C392.748 144.314 392.717 144.516 392.687 144.709C392.642 144.899 392.586 145.073 392.54 145.241C392.462 145.581 392.328 145.858 392.223 146.101L392.073 146.433L391.917 146.69C391.733 146.993 391.633 147.146 391.633 147.146Z" fill="#FFDD00"/>
<path d="M400.75 124.223C400.75 124.223 400.745 124.041 400.741 123.686L400.739 123.387C400.732 123.277 400.708 123.157 400.692 123.027C400.655 122.767 400.628 122.463 400.519 122.133C400.472 121.966 400.431 121.788 400.37 121.604C400.297 121.425 400.218 121.238 400.139 121.041C400.066 120.839 399.96 120.643 399.849 120.439C399.732 120.237 399.636 120.011 399.487 119.805C398.961 118.941 398.19 118.049 397.239 117.144C395.334 115.327 392.591 113.571 389.222 111.961C385.85 110.344 381.82 108.913 377.277 107.686C372.732 106.459 367.654 105.488 362.159 104.816C356.666 104.151 350.747 103.787 344.522 103.917C341.411 103.985 338.225 104.181 334.988 104.547C331.752 104.907 328.463 105.451 325.176 106.259C321.901 107.08 318.596 108.143 315.524 109.804C314.002 110.641 312.519 111.62 311.299 112.893C310.691 113.529 310.157 114.237 309.742 115.015C309.349 115.804 309.087 116.655 309.005 117.539C308.956 118.423 309.089 119.305 309.363 120.143C309.663 120.973 310.084 121.751 310.596 122.469C311.616 123.906 312.944 125.091 314.329 126.141C317.129 128.231 320.245 129.761 323.37 131.048C326.505 132.324 329.679 133.339 332.83 134.165C335.981 134.996 339.105 135.652 342.173 136.17C348.315 137.201 354.223 137.698 359.756 137.836C365.29 137.967 370.457 137.74 375.132 137.185C379.805 136.629 383.998 135.798 387.568 134.685C391.134 133.581 394.104 132.24 396.252 130.718C397.324 129.96 398.214 129.191 398.86 128.412C399.039 128.23 399.165 128.02 399.31 127.837C399.451 127.651 399.583 127.473 399.684 127.284C399.791 127.1 399.898 126.925 399.994 126.758C400.081 126.585 400.148 126.415 400.219 126.257C400.375 125.946 400.445 125.65 400.52 125.397C400.554 125.271 400.595 125.156 400.618 125.048L400.663 124.754C400.718 124.403 400.75 124.223 400.75 124.223C400.75 124.223 400.732 124.404 400.684 124.757L400.644 125.054C400.622 125.163 400.583 125.278 400.55 125.406C400.478 125.661 400.41 125.959 400.257 126.273C400.188 126.432 400.119 126.605 400.035 126.78C399.938 126.948 399.834 127.125 399.728 127.311C399.629 127.502 399.495 127.683 399.354 127.87C399.21 128.055 399.084 128.267 398.908 128.45C398.26 129.238 397.37 130.017 396.296 130.783C394.147 132.322 391.176 133.678 387.603 134.796C384.028 135.921 379.827 136.762 375.147 137.329C370.467 137.895 365.296 138.131 359.754 138.007C354.213 137.877 348.294 137.384 342.142 136.357C339.069 135.842 335.938 135.186 332.78 134.356C329.622 133.53 326.439 132.516 323.293 131.236C320.159 129.945 317.027 128.41 314.206 126.305C312.808 125.245 311.469 124.051 310.427 122.588C309.908 121.858 309.478 121.062 309.168 120.211C308.888 119.349 308.746 118.437 308.798 117.522C308.88 116.61 309.154 115.731 309.558 114.92C309.985 114.121 310.531 113.398 311.149 112.75C312.393 111.457 313.89 110.469 315.426 109.625C318.523 107.951 321.841 106.886 325.128 106.062C328.426 105.254 331.723 104.711 334.966 104.351C338.211 103.987 341.402 103.794 344.518 103.727C350.753 103.604 356.677 103.972 362.18 104.646C367.681 105.327 372.766 106.307 377.314 107.546C381.863 108.784 385.896 110.225 389.271 111.856C392.646 113.479 395.388 115.251 397.294 117.086C398.244 118.001 399.014 118.9 399.54 119.773C399.687 119.98 399.78 120.208 399.897 120.412C400.01 120.617 400.116 120.816 400.186 121.02C400.264 121.219 400.34 121.41 400.413 121.591C400.471 121.776 400.512 121.955 400.559 122.123C400.665 122.456 400.689 122.762 400.723 123.024C400.738 123.154 400.76 123.276 400.766 123.386L400.762 123.686C400.759 124.042 400.75 124.223 400.75 124.223Z" fill="#FFDD00"/>
<path d="M380.859 80.4627C380.859 80.4627 380.696 80.3797 380.384 80.2112L380.12 80.0694L379.785 79.9379C379.539 79.8452 379.257 79.7232 378.916 79.6595C378.748 79.622 378.571 79.5724 378.381 79.5367C378.188 79.5152 377.987 79.4916 377.774 79.4676C377.564 79.4336 377.34 79.4315 377.107 79.4331C376.875 79.4389 376.63 79.4134 376.378 79.4446C375.368 79.4914 374.217 79.7381 372.966 80.1351C370.455 80.9313 367.595 82.4914 364.564 84.671C361.524 86.8486 358.331 89.6933 355.07 93.087C351.808 96.4808 348.513 100.465 345.281 104.959C342.055 109.455 338.89 114.472 336.009 119.991C334.573 122.75 333.212 125.637 331.975 128.651C330.735 131.662 329.63 134.806 328.757 138.075C327.901 141.343 327.242 144.752 327.221 148.245C327.221 149.982 327.366 151.753 327.896 153.436C328.162 154.273 328.526 155.082 329.006 155.821C329.509 156.543 330.129 157.184 330.865 157.68C331.616 158.148 332.455 158.454 333.321 158.619C334.193 158.754 335.079 158.76 335.954 158.658C337.705 158.453 339.381 157.859 340.968 157.15C344.146 155.702 346.989 153.704 349.62 151.586C352.247 149.45 354.664 147.155 356.902 144.791C359.148 142.429 361.224 140.004 363.155 137.563C367.012 132.676 370.291 127.733 373.073 122.949C375.85 118.16 378.138 113.523 379.899 109.158C381.659 104.793 382.949 100.716 383.691 97.0515C384.438 93.3932 384.691 90.146 384.39 87.53C384.241 86.226 383.993 85.0765 383.622 84.1339C383.548 83.8918 383.425 83.6805 383.335 83.465C383.239 83.2513 383.149 83.047 383.031 82.869C382.922 82.686 382.818 82.5095 382.719 82.3439C382.608 82.1863 382.492 82.0446 382.387 81.9076C382.188 81.6227 381.964 81.4144 381.777 81.2295L381.521 80.9748L381.283 80.7944C381.002 80.5783 380.859 80.4627 380.859 80.4627C380.859 80.4627 381.009 80.5664 381.295 80.7779L381.536 80.9553L381.801 81.2065C381.989 81.3912 382.218 81.5963 382.419 81.8809C382.525 82.0179 382.644 82.1594 382.756 82.3183C382.857 82.4852 382.963 82.66 383.075 82.8427C383.195 83.0221 383.288 83.2261 383.385 83.4397C383.476 83.6551 383.604 83.8688 383.679 84.1122C384.058 85.0583 384.313 86.2129 384.47 87.5217C384.784 90.148 384.543 93.4053 383.804 97.0742C383.071 100.75 381.789 104.838 380.034 109.213C378.278 113.588 375.997 118.236 373.224 123.036C370.442 127.83 367.163 132.782 363.305 137.681C361.371 140.126 359.293 142.559 357.046 144.927C354.804 147.298 352.382 149.6 349.748 151.743C347.108 153.869 344.257 155.876 341.053 157.337C339.452 158.054 337.76 158.654 335.978 158.862C335.087 158.966 334.18 158.962 333.287 158.822C332.397 158.654 331.53 158.338 330.753 157.854C329.993 157.342 329.352 156.68 328.834 155.937C328.341 155.176 327.969 154.35 327.699 153.497C327.162 151.786 327.018 149.996 327.015 148.244C327.038 144.725 327.702 141.301 328.562 138.023C329.438 134.742 330.548 131.592 331.793 128.575C333.032 125.557 334.399 122.664 335.84 119.901C338.731 114.376 341.904 109.357 345.142 104.858C348.385 100.363 351.691 96.3798 354.965 92.9864C358.237 89.5946 361.441 86.7518 364.494 84.5773C367.542 82.4019 370.416 80.8463 372.941 80.0586C374.199 79.6652 375.358 79.4234 376.375 79.3832C376.629 79.3531 376.874 79.3814 377.108 79.3769C377.343 79.378 377.566 79.38 377.778 79.4153C377.992 79.442 378.194 79.467 378.388 79.4911C378.578 79.5297 378.757 79.5791 378.926 79.6194C379.267 79.6873 379.551 79.8118 379.795 79.909L380.133 80.0459L380.395 80.1934C380.705 80.3692 380.859 80.4627 380.859 80.4627Z" fill="#FFDD00"/>
<path d="M308.278 133.502C308.947 134.169 308.947 135.253 308.278 135.92C307.611 136.589 306.529 136.589 305.862 135.92C305.193 135.253 305.193 134.169 305.862 133.502C306.529 132.834 307.611 132.834 308.278 133.502Z" fill="#FFDD00"/>
<path d="M404.764 78.6597C404.764 79.6038 403.999 80.3702 403.053 80.3702C402.109 80.3702 401.343 79.6038 401.343 78.6597C401.343 77.7157 402.109 76.9492 403.053 76.9492C403.999 76.9492 404.764 77.7157 404.764 78.6597Z" fill="#FFDD00"/>
<path d="M319.078 145.505C319.078 145.744 318.882 145.938 318.643 145.938C318.404 145.938 318.208 145.744 318.208 145.505C318.208 145.264 318.404 145.068 318.643 145.068C318.882 145.068 319.078 145.264 319.078 145.505Z" fill="#FFDD00"/>
<path d="M328.354 97.5832C328.354 97.8224 328.159 98.0182 327.919 98.0182C327.678 98.0182 327.484 97.8224 327.484 97.5832C327.484 97.3427 327.678 97.1483 327.919 97.1483C328.159 97.1483 328.354 97.3427 328.354 97.5832Z" fill="#FFDD00"/>
<path d="M396.173 120.876C396.173 121.115 395.978 121.31 395.738 121.31C395.499 121.31 395.303 121.115 395.303 120.876C395.303 120.635 395.499 120.441 395.738 120.441C395.978 120.441 396.173 120.635 396.173 120.876Z" fill="#FFDD00"/>
<path d="M402.213 100.615C402.213 100.856 402.018 101.05 401.779 101.05C401.538 101.05 401.343 100.856 401.343 100.615C401.343 100.376 401.538 100.18 401.779 100.18C402.018 100.18 402.213 100.376 402.213 100.615Z" fill="#FFDD00"/>
<path d="M372.924 117.42H367.548V101.18C367.548 96.3902 364.836 92.2209 360.869 90.1272C360.824 90.1035 360.78 90.0811 360.736 90.0587C359.032 89.186 357.104 88.6937 355.063 88.6937C350.923 88.6937 347.248 90.7174 344.975 93.8279C344.936 93.8825 344.897 93.937 344.857 93.9916C343.42 96.0251 342.575 98.5063 342.575 101.18L342.566 121.527L337.201 117.42V101.18C337.201 91.3314 345.214 83.3188 355.063 83.3188C364.911 83.3188 372.924 91.3314 372.924 101.18V105.354V105.508V115.957V116.197V117.42Z" fill="#48A69E"/>
<path d="M375.982 148.305H334.141C332.401 148.305 330.992 146.894 330.992 145.155V120.569C330.992 118.829 332.401 117.418 334.141 117.418H337.215H375.982C377.722 117.418 379.131 118.829 379.131 120.569V145.155C379.131 146.894 377.722 148.305 375.982 148.305Z" fill="#FFDD00"/>
<path d="M356.159 138.708H353.964V132.691C352.278 132.211 351.038 130.677 351.038 128.838C351.038 126.615 352.841 124.814 355.063 124.814C357.284 124.814 359.085 126.615 359.085 128.838C359.085 130.677 357.845 132.211 356.159 132.691V138.708Z" fill="#48A69E"/>
<path d="M333.559 145.375C333.448 145.375 333.359 140.224 333.359 133.871C333.359 127.517 333.448 122.368 333.559 122.368C333.67 122.368 333.758 127.517 333.758 133.871C333.758 140.224 333.67 145.375 333.559 145.375Z" fill="#FAFAF7"/>
<path d="M351.909 133.996C351.896 134.015 351.722 133.934 351.439 133.729C351.155 133.526 350.778 133.178 350.403 132.671C349.65 131.687 348.964 129.899 349.41 127.969C349.877 126.043 351.292 124.752 352.406 124.21C352.968 123.926 353.46 123.785 353.804 123.73C354.15 123.674 354.345 123.678 354.348 123.702C354.365 123.778 353.585 123.85 352.541 124.457C351.513 125.038 350.228 126.281 349.799 128.06C349.386 129.842 349.976 131.531 350.635 132.51C351.295 133.52 351.958 133.936 351.909 133.996Z" fill="#FAFAF7"/>
<path d="M426.534 202.439H278.31C271.115 202.439 265.28 196.604 265.28 189.407V187.803C265.28 180.606 271.115 174.772 278.31 174.772H426.534C433.731 174.772 439.565 180.606 439.565 187.803V189.407C439.565 196.604 433.731 202.439 426.534 202.439Z" fill="#F2F1ED"/>
<path d="M427.817 240.375H279.593C272.396 240.375 266.562 234.541 266.562 227.344V225.74C266.562 218.543 272.396 212.708 279.593 212.708H427.817C435.014 212.708 440.845 218.543 440.845 225.74V227.344C440.845 234.541 435.014 240.375 427.817 240.375Z" fill="#F2F1ED"/>
<path d="M48.5077 615.456H35.986L31.3441 559.088H46.0881L48.5077 615.456Z" fill="#08322F"/>
<path d="M157.027 615.456H169.547L174.19 559.088H159.445L157.027 615.456Z" fill="#08322F"/>
<path d="M182.796 566.225L21.6251 570.008L16.7203 465.908C16.2405 455.716 24.3748 447.189 34.579 447.189H171.896C182.257 447.189 190.45 455.969 189.733 466.305L182.796 566.225Z" fill="#FFDD00"/>
<path d="M191.059 465.552C191.059 465.565 190.906 465.578 190.61 465.59C190.273 465.6 189.836 465.614 189.288 465.631C188.078 465.648 186.376 465.674 184.208 465.706C179.747 465.722 173.376 465.745 165.524 465.773C149.75 465.8 127.955 465.622 103.899 466.18C79.8308 466.98 58.0168 466.843 42.2447 466.604C34.3566 466.48 27.9748 466.326 23.5664 466.193C21.4 466.119 19.6993 466.06 18.4895 466.02C17.9413 465.993 17.5063 465.972 17.1692 465.955C16.8727 465.937 16.7203 465.922 16.7203 465.908C16.7203 465.895 16.8727 465.887 17.1706 465.88C17.5077 465.88 17.9441 465.877 18.4923 465.874C19.7021 465.881 21.4042 465.894 23.572 465.91C28.0322 465.952 34.4014 466.014 42.2517 466.089C58.0252 466.197 79.8154 466.252 103.881 465.453C127.955 464.894 149.752 465.154 165.526 465.259C173.378 465.327 179.747 465.383 184.208 465.422C186.376 465.449 188.078 465.47 189.288 465.482C189.836 465.496 190.271 465.508 190.61 465.516C190.906 465.529 191.059 465.538 191.059 465.552Z" fill="#08322F"/>
<path d="M75.5105 448.815C75.5553 449.059 70.4601 449.147 65.0462 451.955C59.5916 454.692 56.5315 458.766 56.3608 458.587C56.2965 458.54 56.958 457.467 58.358 455.997C59.7497 454.529 61.9469 452.724 64.7147 451.308C67.4853 449.899 70.2364 449.178 72.242 448.913C74.2545 448.641 75.5105 448.737 75.5105 448.815Z" fill="#08322F"/>
<path d="M141.799 259.545L161.502 295.534C161.502 295.534 165.757 302.579 166.867 310.056C167.825 316.51 165.905 323.466 163.243 324.372C157.499 326.327 146.62 326.684 140.399 318.901C134.734 311.814 118.25 274.6 118.25 274.6L141.799 259.545Z" fill="#FBA586"/>
<path d="M213.403 533.98C213.45 533.979 213.496 533.503 213.364 532.656C213.224 531.814 212.878 530.585 212.024 529.282C211.804 528.965 211.586 528.621 211.225 528.309C210.884 527.999 210.294 527.761 209.726 527.971C209.442 528.061 209.161 528.32 209.062 528.638C208.955 528.959 209.008 529.278 209.092 529.537C209.278 530.07 209.557 530.45 209.79 530.891C210.31 531.766 210.74 532.638 211.404 533.624C211.74 534.127 212.495 534.544 213.185 534.425C213.863 534.34 214.411 534.01 214.905 533.663C215.863 532.968 216.706 532.178 217.432 531.334C217.794 530.913 218.124 530.478 218.428 530.038C218.712 529.6 219.049 529.157 219.176 528.548C219.305 527.961 219.082 527.19 218.417 526.924C217.741 526.681 217.192 527.02 216.815 527.287C216.052 527.92 215.593 528.571 215.127 529.2C214.241 530.454 213.75 531.607 213.473 532.41C213.201 533.22 213.137 533.688 213.185 533.702C213.322 533.758 213.776 531.891 215.578 529.531C216.025 528.973 216.58 528.292 217.2 527.82C217.516 527.593 217.912 527.447 218.151 527.569C218.404 527.659 218.544 528.038 218.462 528.404C218.382 528.78 218.098 529.185 217.806 529.606C217.512 530.021 217.193 530.429 216.846 530.825C216.151 531.617 215.344 532.366 214.442 533.02C214.008 533.333 213.534 533.59 213.095 533.643C212.653 533.698 212.305 533.523 212.014 533.144C211.462 532.341 210.931 531.348 210.421 530.523C210.176 530.092 209.881 529.674 209.754 529.315C209.618 528.936 209.694 528.692 209.957 528.585C210.564 528.336 211.154 529.021 211.564 529.603C213.27 532.021 213.249 534.029 213.403 533.98Z" fill="#08322F"/>
<path d="M179.032 535.157L161.966 572.143L134.428 559.42L152.078 513.645L179.032 535.157Z" fill="#FBA586"/>
<path d="M165.192 569.675L155.22 588.688C155.22 588.688 180.743 615.078 178.345 620.979L118.345 592.211L134.829 554.073L165.192 569.675Z" fill="#08322F"/>
<path d="M178.345 620.979C178.692 620.126 178.456 618.846 177.797 617.278C178.341 618.077 179.222 619.715 178.345 620.979Z" fill="white"/>
<path d="M178.345 620.979L169.257 616.621L118.345 592.211L120.842 587.427L177.436 616.797C177.436 616.797 177.593 616.978 177.797 617.277C178.456 618.845 178.692 620.126 178.345 620.979Z" fill="#A3B0AA"/>
<path d="M156.338 588.847C156.189 589.136 154.659 588.568 152.765 588.819C150.866 589.019 149.515 589.934 149.299 589.688C149.057 589.501 150.336 587.959 152.634 587.695C154.927 587.411 156.531 588.61 156.338 588.847Z" fill="#08322F"/>
<path d="M161.385 594.47C161.315 594.785 159.807 594.675 158.217 595.438C156.606 596.152 155.712 597.372 155.427 597.22C155.129 597.134 155.748 595.32 157.743 594.411C159.727 593.484 161.512 594.187 161.385 594.47Z" fill="#08322F"/>
<path d="M161.345 603.715C161.05 603.649 161.344 601.992 162.866 600.747C164.379 599.492 166.063 599.522 166.071 599.825C166.12 600.145 164.818 600.58 163.585 601.62C162.327 602.631 161.65 603.825 161.345 603.715Z" fill="#08322F"/>
<path d="M159.2 581.524C158.948 581.733 157.799 580.684 156.088 580.003C154.393 579.285 152.838 579.224 152.806 578.899C152.737 578.607 154.516 578.124 156.52 578.957C158.529 579.772 159.455 581.364 159.2 581.524Z" fill="#08322F"/>
<path d="M170.813 564.738L215.797 452.158C215.797 452.158 214.787 432.95 211.249 426.884C207.711 420.818 100.547 385.434 100.547 385.434C100.547 385.434 73.2504 378.861 55.0532 385.434C36.856 392.004 23.207 414.751 25.7343 427.389C28.2616 440.025 38.9287 449.309 38.9287 449.309L117.733 451.652L160.687 467.322L131.761 550.221L170.813 564.738Z" fill="#08322F"/>
<path d="M210.825 487.807L211.839 528.529L181.512 529.271L177.143 480.404L210.825 487.807Z" fill="#FBA586"/>
<path d="M213.643 524.891L213.091 546.355C213.091 546.355 247.642 558.766 248.097 565.117L181.558 565.792L179.512 524.295L213.643 524.891Z" fill="#08322F"/>
<path d="M192.487 543.678C191.203 544.043 190.327 545.501 190.639 546.799C190.951 548.098 192.424 549 193.715 548.657C195.004 548.315 196.11 546.597 195.655 545.343C195.2 544.087 193.408 543.123 192.239 543.765" fill="#D9D9D0"/>
<path d="M248.097 565.117C248.031 564.2 247.255 563.157 245.975 562.043C246.817 562.52 248.323 563.599 248.097 565.117Z" fill="white"/>
<path d="M181.557 565.792L181.687 560.399L245.434 561.769C245.434 561.769 245.656 561.863 245.973 562.043C247.253 563.157 248.031 564.2 248.097 565.117L182.825 565.779L181.557 565.792Z" fill="#A3B0AA"/>
<path d="M214.165 546.004C214.158 546.329 212.534 546.492 210.947 547.554C209.331 548.572 208.522 549.989 208.221 549.863C207.92 549.803 208.386 547.856 210.331 546.604C212.264 545.337 214.234 545.705 214.165 546.004Z" fill="#08322F"/>
<path d="M221.173 548.82C221.25 549.134 219.848 549.701 218.758 551.085C217.628 552.439 217.365 553.929 217.041 553.917C216.737 553.971 216.494 552.07 217.881 550.375C219.253 548.666 221.164 548.51 221.173 548.82Z" fill="#08322F"/>
<path d="M225.222 557.133C224.927 557.203 224.459 555.585 225.276 553.797C226.078 552.004 227.604 551.287 227.744 551.555C227.93 551.821 226.952 552.786 226.306 554.264C225.624 555.726 225.544 557.096 225.222 557.133Z" fill="#08322F"/>
<path d="M213.501 538.168C213.368 538.466 211.871 538.032 210.036 538.176C208.199 538.282 206.776 538.912 206.604 538.636C206.413 538.403 207.796 537.186 209.959 537.048C212.122 536.892 213.657 537.91 213.501 538.168Z" fill="#08322F"/>
<path d="M193.116 374.752C193.116 374.752 211.285 373.299 213.308 393.014C215.329 412.729 217.315 504.729 217.315 504.729L174.853 508.266L168.282 414.246L100.548 385.435C100.548 385.435 180.983 372.225 193.116 374.752Z" fill="#08322F"/>
<path d="M118.222 348.15C118.222 348.15 129.249 379.066 127.15 382.512C125.049 385.958 96.6923 400.137 96.6923 400.137L25.7357 427.389C25.7357 427.389 18.4476 415.796 18.4476 397.989C18.4476 380.182 43.1287 348.15 43.1287 348.15H118.222Z" fill="#08322F"/>
<path d="M97.1902 383.856C97.186 383.867 97.2979 383.927 97.5231 384.035C97.7818 384.155 98.1147 384.308 98.5301 384.501C99.4658 384.917 100.779 385.502 102.46 386.249C105.944 387.766 110.947 389.947 117.21 392.675C129.866 398.123 147.606 405.759 168.133 414.596L167.904 414.273C168.547 423.559 169.243 433.59 169.962 443.968C171.688 468.225 173.28 490.592 174.538 508.288L174.561 508.608L174.88 508.58C187.794 507.448 198.392 506.517 205.814 505.866C209.463 505.524 212.327 505.257 214.33 505.07C215.273 504.972 216.011 504.895 216.557 504.839C217.059 504.782 217.316 504.744 217.315 504.729C217.313 504.712 217.053 504.717 216.548 504.744C216.001 504.778 215.262 504.824 214.315 504.884C212.309 505.032 209.438 505.242 205.783 505.509C198.358 506.095 187.751 506.931 174.827 507.952L175.169 508.245C173.954 490.544 172.418 468.175 170.752 443.912C170.022 433.537 169.316 423.506 168.662 414.22L168.645 413.987L168.432 413.896C147.86 405.164 130.081 397.618 117.399 392.234C111.098 389.593 106.066 387.482 102.562 386.013C100.86 385.313 99.5301 384.768 98.5818 384.379C98.1553 384.211 97.8168 384.077 97.5497 383.973C97.3161 383.887 97.1944 383.845 97.1902 383.856Z" fill="#08322F"/>
<path d="M40.7595 386.948C40.7776 387 41.4853 386.803 42.7511 386.404C44.1595 385.95 45.9525 385.372 48.0937 384.682C52.6014 383.252 58.856 381.26 65.9734 380.164C73.0909 379.066 79.6769 379.406 84.2769 380.399C88.8979 381.355 91.5539 382.674 91.6126 382.524C91.6322 382.484 90.9888 382.122 89.7664 381.592C88.5455 381.056 86.7203 380.408 84.3972 379.853C79.765 378.702 73.0602 378.267 65.8546 379.38C58.6518 380.489 52.386 382.583 47.9147 384.151C45.6769 384.945 43.8811 385.627 42.6476 386.113C41.414 386.603 40.7413 386.898 40.7595 386.948Z" fill="#08322F"/>
<path d="M50.7874 370.652C50.807 370.776 53.1636 370.317 56.9916 370.615C58.9021 370.75 61.1762 371.043 63.7077 371.336C66.2364 371.636 69.0112 371.978 71.8839 372.522C77.649 373.548 82.6084 375.555 85.7874 377.678C88.9958 379.766 90.4979 381.671 90.6084 381.562C90.6392 381.537 90.3147 381.028 89.5776 380.228C88.842 379.432 87.7021 378.329 86.1007 377.214C82.9399 374.924 77.8671 372.779 72.0308 371.743C69.1217 371.192 66.3245 370.871 63.7874 370.61C61.2518 370.358 58.9636 370.12 57.021 370.057C55.0811 369.987 53.5035 370.098 52.4294 370.262C51.3538 370.425 50.7776 370.604 50.7874 370.652Z" fill="#08322F"/>
<path d="M96.2699 134.751L63.7063 141.649C60.5566 141.859 58.0909 144.445 58.0308 147.601L58.4224 218.071C58.4489 222.885 60.0615 227.557 63.0112 231.361L66.1161 235.366C73.1972 244.498 87.5399 243.578 92.9482 233.366C93.3259 232.653 93.5874 232.028 93.6979 231.523C93.807 230.888 93.9762 230.47 94.0056 229.931L94.6252 223.062C94.9426 216.786 94.986 210.411 94.9874 210.47C94.9874 210.47 108.313 208.786 111.727 191.615C113.425 183.077 113.541 168.973 113.263 157.431C113.011 147.042 106.639 134.059 96.2699 134.751Z" fill="#FBA586"/>
<path d="M95.0755 206.144C95.0755 206.144 82.4196 206.397 71.1734 199.029C71.1734 199.029 74.2028 208.207 80.0713 211.548C83.5482 213.527 88.3426 214.992 94.7986 214.639L95.0755 206.144Z" fill="#FB7E53"/>
<path d="M144.497 260.246C144.497 260.246 131.804 239.081 128.283 234.801C124.98 230.789 120.724 228.422 117.885 227.179C116.305 226.488 114.643 226.013 112.944 225.717L94.6909 221.676C94.6909 221.676 94.6588 234.134 81.6056 234.905C68.5511 235.676 57.5595 217.491 57.5595 217.491C57.5595 217.491 36.47 220.752 31.4238 223.348C26.3776 225.944 18.449 229.241 14.0853 251.091L11.0224 272.467L47.3846 275.828L50.8644 329.863L68.8979 342.42C68.8979 342.42 118.894 355.42 122.088 356.278C125.283 357.138 126.34 275.828 126.34 275.828C126.34 275.828 139.182 267.526 144.497 260.246Z" fill="#08322F"/>
<path d="M120.564 251.158C120.611 251.14 120.857 251.695 121.266 252.716C121.681 253.734 122.211 255.236 122.801 257.112C123.986 260.862 125.285 266.164 126.021 272.129C126.747 278.099 126.764 283.558 126.519 287.482C126.399 289.446 126.248 291.029 126.089 292.117C125.94 293.207 125.834 293.806 125.783 293.8C125.733 293.794 125.744 293.185 125.807 292.092C125.877 290.999 125.951 289.415 126.004 287.46C126.117 283.552 126.017 278.141 125.298 272.218C124.568 266.298 123.359 261.024 122.308 257.257C121.785 255.373 121.331 253.853 120.999 252.81C120.674 251.764 120.516 251.175 120.564 251.158Z" fill="#08322F"/>
<path d="M50.6363 324.764L47.386 276.003L13.0923 273.014C13.0923 273.014 14.2196 306.469 15.3902 316.413C17.0741 330.717 27.7105 349.825 33.972 354.049C35.1748 354.86 41.007 347.687 44.0405 339.983C47.2909 331.73 50.6363 324.764 50.6363 324.764Z" fill="#FBA586"/>
<path d="M96.2917 123.431C88.4916 120.647 80.8771 122.497 73.2973 125.833C65.7173 129.17 59.4054 135.109 55.1157 142.194C50.5989 149.656 48.2534 158.536 49.1853 167.208C50.1173 175.881 54.4647 184.264 61.4381 189.506C70.961 196.662 84.6633 197.167 95.2684 191.743C105.872 186.317 113.286 175.563 115.802 163.919C117.536 155.899 117.062 147.295 113.732 139.796C110.4 132.295 104.082 126.015 96.2917 123.431Z" fill="#08322F"/>
<path d="M68.6038 146.741C70.3223 143.873 70.4735 140.357 71.5125 137.179C73.8031 130.181 80.6018 125.443 87.7851 123.824C94.4686 122.317 101.97 124.226 109.039 127.972C113.885 130.54 118.211 134.289 120.901 139.068C124.471 145.411 124.694 153.519 121.477 160.049L85.6883 148.224C81.7476 150.462 77.7168 152.735 73.265 153.586C71.9584 153.835 70.5816 153.952 69.3245 153.519C68.0673 153.085 66.9648 151.985 66.882 150.658C66.7926 149.208 67.8572 147.987 68.6038 146.741Z" fill="#08322F"/>
<path d="M108.036 138.252L74.7696 139.391C71.6313 139.05 68.754 141.169 68.1466 144.267L60.2681 191.18C64.3656 196.985 75.6213 204.713 81.3284 208.26C86.2471 211.317 93.6288 212.568 93.6248 212.598C93.6248 212.598 107.041 213.254 113.384 196.937C116.539 188.823 119.103 174.954 120.833 163.538C122.389 153.264 118.368 139.371 108.036 138.252Z" fill="#FBA586"/>
<path d="M113.659 175.704C113.451 176.857 112.303 177.632 111.095 177.437C109.889 177.243 109.078 176.152 109.284 174.998C109.492 173.846 110.64 173.07 111.845 173.264C113.054 173.458 113.866 174.552 113.659 175.704Z" fill="#08322F"/>
<path d="M116.292 170.057C115.963 170.282 114.584 168.711 112.25 168.211C109.927 167.679 107.956 168.509 107.765 168.169C107.668 168.015 108.051 167.565 108.914 167.183C109.765 166.802 111.129 166.548 112.581 166.869C114.032 167.19 115.137 167.99 115.721 168.69C116.318 169.396 116.453 169.959 116.292 170.057Z" fill="#08322F"/>
<path d="M92.7046 171.465C92.4983 172.619 91.3505 173.394 90.1422 173.199C88.9368 173.003 88.1248 171.914 88.3324 170.761C88.5385 169.609 89.6865 168.833 90.8921 169.027C92.1004 169.221 92.9122 170.312 92.7046 171.465Z" fill="#08322F"/>
<path d="M94.0959 165.555C93.7655 165.778 92.3849 164.208 90.053 163.709C87.7296 163.177 85.7598 164.007 85.5684 163.667C85.4719 163.514 85.8525 163.062 86.7179 162.681C87.5691 162.3 88.9331 162.046 90.385 162.366C91.8363 162.689 92.9422 163.489 93.5261 164.188C94.1219 164.892 94.2553 165.457 94.0959 165.555Z" fill="#08322F"/>
<path d="M97.9926 184.654C98.0107 184.519 99.5134 184.582 101.928 184.791C102.537 184.858 103.125 184.863 103.314 184.479C103.548 184.078 103.436 183.382 103.298 182.628C103.051 181.065 102.792 179.429 102.52 177.712C101.474 170.728 100.854 165.036 101.135 164.996C101.416 164.956 102.494 170.585 103.54 177.571C103.784 179.29 104.018 180.929 104.238 182.497C104.318 183.223 104.54 184.074 104.042 184.901C103.785 185.311 103.277 185.54 102.873 185.56C102.466 185.595 102.13 185.528 101.832 185.481C99.4412 185.097 97.9732 184.788 97.9926 184.654Z" fill="#08322F"/>
<path d="M95.7891 190.062C95.1917 188.771 93.853 187.842 92.3598 187.684C91.3243 187.572 90.1979 187.839 89.4043 188.53C88.6107 189.221 88.2273 190.365 88.617 191.272C89.0547 192.293 90.3249 192.781 91.5054 192.707C92.6875 192.631 93.8042 192.105 94.8724 191.572C95.167 191.424 95.4708 191.272 95.6872 191.027C95.9044 190.786 96.0154 190.43 95.8715 190.159" fill="#FB7E53"/>
<path d="M90.78 184.779C91.1642 184.84 90.6196 187.373 92.3974 189.638C94.1682 191.91 96.9299 192.211 96.8725 192.568C96.873 192.734 96.1653 192.931 95.0204 192.715C93.8944 192.512 92.3414 191.799 91.2537 190.413C90.1706 189.025 89.9205 187.431 90.0587 186.373C90.1907 185.295 90.6101 184.728 90.78 184.779Z" fill="#08322F"/>
<path d="M95.194 158.563C94.8268 159.147 92.563 158.342 89.7563 158.078C86.9536 157.76 84.5749 158.082 84.3354 157.435C84.2332 157.129 84.7471 156.614 85.7712 156.194C86.7885 155.773 88.3241 155.497 90.0064 155.67C91.6881 155.846 93.1356 156.432 94.0442 157.054C94.9613 157.675 95.3583 158.284 95.194 158.563Z" fill="#08322F"/>
<path d="M117.823 159.716C117.298 160.156 115.812 159.257 113.885 158.814C111.975 158.302 110.24 158.396 109.983 157.761C109.876 157.457 110.248 156.981 111.072 156.635C111.885 156.288 113.153 156.135 114.471 156.463C115.789 156.792 116.835 157.522 117.39 158.209C117.955 158.901 118.06 159.496 117.823 159.716Z" fill="#08322F"/>
<path d="M63.5983 140.753C68.6452 131.574 85.5072 120.828 95.6181 123.562L110.055 136.606C107.965 141.989 102.701 145.999 96.9558 146.582C93.8873 146.893 90.3541 146.449 88.1429 148.6C85.8854 150.795 86.1826 154.699 84.0305 156.998C81.047 160.186 74.8834 158.792 72.4089 162.388C71.3282 163.958 71.311 166.085 70.2021 167.638C68.7242 169.705 62.4119 171.451 60.183 170.23C57.9558 169.008 58.7462 164.96 58.3858 162.687C57.7713 158.802 58.6886 157.031 59.5244 155.094C61.5038 150.505 61.1903 145.131 63.5983 140.753Z" fill="#08322F"/>
<path d="M66.8022 173.614C67.0711 172.355 66.2594 169.073 65.0587 168.61C61.8527 167.373 55.8138 166.344 53.9321 174.76C51.3613 186.263 63.4399 186.473 63.5342 186.147C63.6088 185.893 65.8711 177.96 66.8022 173.614Z" fill="#FBA586"/>
<path d="M60.9945 181.003C60.9517 180.956 60.7632 181.098 60.3911 181.179C60.0269 181.256 59.4345 181.232 58.8856 180.874C57.7695 180.156 57.1786 177.998 57.5861 175.913C57.7905 174.858 58.2331 173.911 58.7887 173.168C59.3279 172.405 60.0023 171.939 60.6392 171.968C61.2792 171.963 61.6308 172.425 61.6987 172.781C61.7821 173.138 61.6566 173.35 61.7133 173.383C61.738 173.42 62.0032 173.245 62.0168 172.749C62.0207 172.509 61.946 172.208 61.7258 171.926C61.4993 171.641 61.1193 171.436 60.6822 171.386C59.7816 171.25 58.8011 171.889 58.1904 172.703C57.5309 173.511 57.0091 174.57 56.7791 175.753C56.3348 178.088 57.0358 180.524 58.5912 181.376C59.3529 181.767 60.0836 181.675 60.4927 181.481C60.9122 181.277 61.0303 181.033 60.9945 181.003Z" fill="#FB7E53"/>
<path d="M61.6456 137.305C62.3225 133.684 58.2092 130.513 54.8199 129.068C51.4317 127.624 47.5058 128.038 44.0152 129.22C41.9733 129.911 39.8428 131.032 39.0598 133.04C38.2755 135.048 39.8422 137.882 41.9611 137.487C37.923 138.119 35.095 142.865 36.4608 146.717C37.8266 150.569 43.0125 152.474 46.5456 150.421C44.9665 153.569 42.2767 156.147 39.064 157.59C44.8806 159.493 51.6646 158.061 56.2157 153.972C60.7671 149.882 62.9147 143.292 61.6456 137.305Z" fill="#08322F"/>
<path d="M50.3423 154.333C50.2575 154.33 50.1797 152.959 50.5224 150.774C50.8583 148.595 51.7159 145.616 53.3341 142.641C54.9616 139.669 57.0036 137.335 58.6531 135.873C60.3043 134.402 61.4982 133.727 61.5456 133.797C61.7326 133.985 57.1635 137.153 54.0181 143.014C50.7915 148.829 50.6025 154.387 50.3423 154.333Z" fill="#FFDD00"/>
<path d="M107.304 132.505C107.539 137.415 113.649 144.735 116.151 148.967C120.925 157.04 121.699 159.578 118.875 175.247C122.668 170.332 125.776 165.41 126.636 159.261C127.495 153.113 126.324 146.595 122.852 141.45C119.379 136.304 113.509 132.696 107.304 132.505Z" fill="#08322F"/>
<path d="M154.576 361.155C153.998 362.055 152.937 362.568 151.886 362.365C151.677 362.325 151.461 362.261 151.24 362.163C149.786 361.522 150.249 358.47 150.249 358.47L143.156 356.534C143.156 356.534 133.137 361.598 129.377 365.259C125.617 368.919 117.442 364.775 117.442 364.775L109.025 352.666L130.65 338.469C130.65 338.469 129.758 339.099 130.911 336.949C132.063 334.798 136.148 336.086 136.148 336.086C136.914 335.043 139.682 334.932 139.682 334.932L151.191 337.499C153.563 338.028 155.568 339.603 156.644 341.78L160.751 350.097C160.751 350.097 162.762 355.986 162.207 357.246C161.367 359.151 159.331 358.492 159.331 358.492C159.331 358.492 158.37 362.124 157.387 362.15C156.404 362.177 154.576 361.155 154.576 361.155Z" fill="#FBA586"/>
<path d="M130.941 347.504C130.941 347.626 132.505 347.644 134.983 348.013C137.451 348.396 140.842 349.194 144.304 350.794C146.035 351.586 147.613 352.488 148.985 353.403C150.31 354.345 151.71 355.149 152.053 356.223C152.227 356.749 152.072 357.248 151.78 357.599C151.495 357.947 151.132 358.159 150.823 358.251C150.185 358.438 149.806 358.223 149.785 358.291C149.756 358.304 150.113 358.65 150.888 358.532C151.263 358.471 151.709 358.274 152.094 357.875C152.484 357.499 152.761 356.781 152.56 356.079C152.38 355.372 151.856 354.787 151.283 354.288C150.692 353.807 150.074 353.312 149.373 352.836C147.992 351.868 146.385 350.926 144.614 350.115C141.071 348.477 137.575 347.744 135.049 347.491C132.51 347.251 130.937 347.42 130.941 347.504Z" fill="#FB7E53"/>
<path d="M129.347 354.846C129.337 355.069 134.098 355.368 139.887 356.321C145.681 357.255 150.291 358.479 150.353 358.266C150.38 358.17 149.259 357.745 147.397 357.213C145.535 356.678 142.926 356.061 140.006 355.584C137.089 355.111 134.42 354.867 132.485 354.782C130.549 354.697 129.351 354.748 129.347 354.846Z" fill="#FB7E53"/>
<path d="M154.539 360.853C154.579 360.849 154.677 360.426 154.817 359.628C154.95 358.829 155.121 357.672 155.183 356.216C155.21 355.49 155.215 354.688 155.105 353.82C155.011 352.949 154.699 352.009 154.229 351.161C153.346 349.461 152.06 347.662 150.333 346.232C148.611 344.816 146.869 343.592 145.057 342.829C143.257 342.071 141.535 341.75 140.105 341.535C138.669 341.332 137.506 341.242 136.701 341.189C135.897 341.137 135.45 341.133 135.443 341.183C135.426 341.302 137.2 341.549 140.016 342.055C141.416 342.334 143.081 342.702 144.783 343.461C146.473 344.206 148.184 345.43 149.847 346.799C151.513 348.185 152.717 349.836 153.624 351.488C154.596 353.077 154.629 354.785 154.655 356.208C154.638 359.057 154.379 360.841 154.539 360.853Z" fill="#FB7E53"/>
<path d="M139.934 337.951C139.923 338.062 141.661 338.29 144.41 338.904C147.047 339.597 151.316 340.243 153.371 344.195C155.664 347.834 157.581 351.246 158.292 353.952C159.064 356.647 158.783 358.426 158.937 358.428C158.976 358.434 159.089 358.003 159.133 357.202C159.184 356.401 159.135 355.225 158.802 353.821C158.197 350.979 156.308 347.452 154.001 343.792C153.411 342.872 152.761 341.989 151.977 341.266C151.196 340.528 150.249 340.048 149.371 339.69C147.588 338.978 145.915 338.648 144.515 338.386C141.707 337.9 139.943 337.856 139.934 337.951Z" fill="#FB7E53"/>
<path d="M132.188 363.044C132.201 363.062 132.457 362.906 132.935 362.588C133.476 362.24 134.177 361.789 135.051 361.227C136.911 360.076 139.667 358.452 143.262 356.757L143.093 356.772C145.206 357.365 147.59 358.033 150.172 358.756L149.958 358.426C149.879 359.014 149.852 359.593 149.906 360.203C149.966 360.803 150.085 361.457 150.542 362.025C150.781 362.303 151.144 362.491 151.453 362.564C151.765 362.68 152.111 362.748 152.462 362.73C153.159 362.704 153.845 362.409 154.36 361.926C154.492 361.808 154.608 361.672 154.718 361.532L154.797 361.423L154.835 361.37L154.854 361.341L154.856 361.34C154.953 361.313 154.021 361.546 154.416 361.448L154.424 361.452L154.439 361.46L154.657 361.576C154.949 361.729 155.248 361.872 155.555 362.004C155.863 362.137 156.179 362.259 156.516 362.356C156.687 362.404 156.86 362.446 157.047 362.47C157.221 362.495 157.432 362.523 157.728 362.411C158.165 362.163 158.347 361.836 158.535 361.531C158.714 361.218 158.866 360.9 158.997 360.577C159.267 359.929 159.481 359.273 159.676 358.585L159.224 358.831C160.141 359.094 161.268 358.984 162.007 358.197C162.341 357.83 162.632 357.363 162.657 356.797C162.686 356.29 162.619 355.834 162.547 355.374C162.228 353.551 161.693 351.779 161.104 349.978L161.097 349.956L161.084 349.932C160.387 348.517 159.646 347.016 158.896 345.496C158.43 344.551 157.965 343.615 157.506 342.685C157.042 341.781 156.645 340.78 155.947 339.939C155.278 339.104 154.442 338.417 153.515 337.927C152.597 337.41 151.54 337.195 150.608 336.997C146.794 336.157 143.157 335.356 139.757 334.608L139.71 334.599L139.67 334.602C138.984 334.646 138.336 334.735 137.691 334.905C137.061 335.085 136.393 335.292 135.894 335.899L136.312 335.815C135.132 335.181 133.704 335.025 132.549 335.631C131.389 336.232 130.767 337.333 130.387 338.388L130.491 338.244C126.317 341.273 122.909 343.744 120.472 345.513C119.346 346.351 111.367 350.605 110.688 351.11C110.075 351.579 109.758 351.835 109.774 351.856C109.79 351.879 110.137 351.665 110.781 351.241C111.482 350.766 119.49 346.552 120.651 345.766C123.122 344.047 126.579 341.641 130.812 338.695L130.88 338.649L130.916 338.553C131.261 337.624 131.864 336.622 132.818 336.162C133.75 335.667 134.999 335.816 135.987 336.358L136.23 336.49L136.404 336.273C136.695 335.912 137.278 335.678 137.854 335.531C138.438 335.383 139.075 335.298 139.698 335.264L139.613 335.256C143.009 336.023 146.64 336.844 150.451 337.705C151.423 337.917 152.332 338.104 153.171 338.576C154.008 339.022 154.764 339.645 155.368 340.401C155.986 341.137 156.359 342.078 156.837 343.014C157.297 343.944 157.76 344.883 158.225 345.826C158.977 347.345 159.719 348.847 160.418 350.262L160.4 350.218C160.982 351.98 161.518 353.758 161.826 355.492C161.896 355.923 161.954 356.363 161.932 356.748C161.936 357.083 161.73 357.423 161.485 357.699C161.004 358.248 160.138 358.345 159.441 358.155L159.084 358.057L158.989 358.402C158.81 359.051 158.601 359.701 158.351 360.309C158.115 360.886 157.777 361.582 157.433 361.789C157.416 361.796 157.288 361.822 157.137 361.79C156.996 361.775 156.847 361.739 156.7 361.699C156.404 361.618 156.109 361.505 155.819 361.383C155.529 361.261 155.243 361.127 154.964 360.984L154.759 360.876L154.747 360.868L154.742 360.866C155.136 360.767 154.2 360.999 154.297 360.977L154.294 360.979L154.28 361.001L154.25 361.045L154.189 361.133L153.909 361.443C153.504 361.83 152.969 362.061 152.435 362.085C152.166 362.103 151.906 362.05 151.647 361.956C151.363 361.887 151.18 361.784 151.017 361.611C150.405 360.822 150.441 359.534 150.543 358.515L150.57 358.249L150.329 358.185C147.737 357.495 145.345 356.861 143.223 356.297L143.132 356.272L143.055 356.311C139.451 358.081 136.732 359.776 134.904 361C133.994 361.621 133.307 362.122 132.853 362.478C132.401 362.833 132.174 363.025 132.188 363.044Z" fill="#FB7E53"/>
<path d="M49.276 325.982C47.8432 325.392 40.844 323.426 32.7872 330.665C24.8748 337.775 28.8687 352.051 30.1919 353.685C31.515 355.319 48.9151 357.849 48.9151 357.849L117.371 365.088L115.895 348.189C115.895 348.189 50.7088 326.573 49.276 325.982Z" fill="#FBA586"/>
<path d="M204.733 303.609L171.68 300.709C171.68 300.709 156.537 299.411 150.723 306.604C145.292 313.326 148.412 320.969 150.514 322.387C151.564 323.096 154.934 325.369 157.502 325.626C158.732 325.749 213.786 314.884 213.786 314.884L204.733 303.609Z" fill="#FBA586"/>
<path d="M256.021 285.748C255.951 284.934 255.46 284.215 254.728 283.854L242.295 277.745C241.194 277.226 239.923 277.2 238.801 277.675L190.671 298.045L191.803 300.287L204.652 308.38L256.079 286.432L256.021 285.748Z" fill="#08322F"/>
<path d="M244.786 285.03C244.885 285.406 245.372 285.604 245.874 285.473C246.375 285.34 246.702 284.928 246.603 284.552C246.504 284.175 246.017 283.978 245.515 284.11C245.013 284.242 244.687 284.654 244.786 285.03Z" fill="white"/>
<path d="M256.079 286.432C256.053 286.483 255.167 286.108 253.586 285.385C251.888 284.585 249.642 283.527 246.926 282.248C245.513 281.569 243.982 280.833 242.346 280.048C241.585 279.629 240.7 279.57 239.889 279.897C238.995 280.28 238.075 280.674 237.132 281.077C233.336 282.69 229.183 284.455 224.824 286.305C216.079 289.996 208.148 293.295 202.391 295.643C199.603 296.761 197.298 297.685 195.554 298.384C193.932 299.014 193.028 299.337 193.006 299.285C192.983 299.233 193.847 298.808 195.429 298.086C197.147 297.326 199.417 296.319 202.163 295.103C207.863 292.617 215.76 289.234 224.504 285.544C228.872 283.713 233.035 281.972 236.838 280.378C237.788 279.983 238.716 279.596 239.619 279.222C240.621 278.813 241.803 278.946 242.634 279.426C244.256 280.245 245.775 281.012 247.175 281.719C249.847 283.095 252.056 284.235 253.728 285.096C255.266 285.91 256.105 286.381 256.079 286.432Z" fill="#08322F"/>
<path d="M234.7 290.899C234.7 290.899 233.809 290.033 231.382 292.433C228.956 294.833 221.797 301.582 221.797 301.582L218.388 295.174L211.156 291.554C211.156 291.554 208.802 291.914 209.375 293.36C209.948 294.805 213.643 298.391 213.643 298.391L213.735 304.938L207.735 294.649C207.735 294.649 204.246 293.421 203.892 295.818C203.54 298.215 205.713 307.927 205.713 307.927L201.485 304.583L198.358 297.791C198.358 297.791 196.683 296.768 196.356 298.563C196.027 300.355 198.161 309.075 198.161 309.075L202.655 316.827C202.655 316.827 206.495 319.001 207.568 318.166C208.641 317.33 209.761 315.863 209.761 315.863C209.761 315.863 212.049 316.648 213.044 315.953C214.04 315.258 214.81 313.614 214.81 313.614C214.81 313.614 217.491 316.2 219.01 314.76C220.53 313.321 222.464 309.77 223.038 308.259C223.61 306.748 233.385 295.718 233.508 295.268C233.631 294.818 237.146 291.384 234.7 290.899Z" fill="#FBA586"/>
<path d="M207.792 318.338C207.761 318.432 206.925 318.279 205.685 317.704C204.447 317.132 202.839 316.074 201.415 314.531C199.997 312.985 199.077 311.293 198.611 310.013C198.14 308.729 198.058 307.882 198.154 307.859C198.397 307.772 199.276 311.034 202.023 313.973C204.721 316.954 207.899 318.103 207.792 318.338Z" fill="#FB7E53"/>
<path d="M207.828 314.873C207.618 314.958 206.852 313.538 206.289 311.646C205.722 309.757 205.585 308.151 205.805 308.107C206.031 308.061 206.525 309.56 207.081 311.411C207.632 313.262 208.043 314.788 207.828 314.873Z" fill="#FB7E53"/>
<path d="M215.232 311.481C215.026 311.567 214.257 310.168 213.813 308.27C213.363 306.374 213.425 304.78 213.647 304.765C213.881 304.747 214.183 306.254 214.618 308.081C215.044 309.909 215.447 311.394 215.232 311.481Z" fill="#FB7E53"/>
<path d="M222.061 309.331C221.827 309.286 222.002 307.578 221.865 305.498C221.745 303.416 221.36 301.744 221.587 301.67C221.791 301.591 222.559 303.24 222.689 305.447C222.833 307.653 222.272 309.384 222.061 309.331Z" fill="#FB7E53"/>
<path d="M247.404 302.151L157.224 302.884C154.299 302.884 151.504 304.288 151.066 307.18L141.21 372.909H94.7595C93.2643 372.909 92.0518 374.12 92.0518 375.615C92.0518 377.112 93.2643 378.324 94.7595 378.324H140.399H149.062H243.116L253.255 308.954C253.797 305.375 251.025 302.151 247.404 302.151Z" fill="#D9D9D0"/>
<path d="M247.404 302.151C247.404 302.151 247.895 302.089 248.825 302.285C249.729 302.495 251.15 303.053 252.27 304.571C252.829 305.312 253.253 306.302 253.385 307.446C253.531 308.608 253.199 309.832 253.053 311.157C252.676 313.813 252.241 316.871 251.752 320.309C249.768 334.089 246.906 353.948 243.39 378.364L243.357 378.604H243.115C204.726 378.627 154.278 378.656 99.1888 378.689C97.8951 378.689 96.6028 378.689 95.3147 378.689C94.7175 378.715 93.8853 378.68 93.2658 378.298C92.6252 377.945 92.1273 377.355 91.8783 376.67C91.3385 375.295 91.9832 373.611 93.2783 372.929C93.8965 372.554 94.7203 372.523 95.3105 372.545H97.2182C102.299 372.547 107.329 372.547 112.292 372.547C122.221 372.551 131.891 372.554 141.21 372.557L140.863 372.857C144.41 349.319 147.72 327.359 150.688 307.66C150.792 306.413 151.355 305.063 152.357 304.225C153.336 303.357 154.575 302.898 155.806 302.706C157.06 302.515 158.253 302.617 159.441 302.576C160.631 302.568 161.811 302.561 162.982 302.552C167.664 302.52 172.194 302.489 176.559 302.46C185.287 302.406 193.358 302.354 200.687 302.308C215.329 302.232 227.001 302.173 235.036 302.131C239.031 302.124 242.115 302.119 244.225 302.115C245.257 302.12 246.045 302.124 246.599 302.127C247.131 302.131 247.404 302.151 247.404 302.151C247.404 302.151 247.133 302.173 246.599 302.189C246.046 302.2 245.257 302.218 244.227 302.239C242.116 302.27 239.031 302.313 235.038 302.371C227.001 302.46 215.33 302.59 200.69 302.752C193.359 302.825 185.288 302.905 176.561 302.992C172.196 303.034 167.667 303.078 162.985 303.122C161.814 303.134 160.634 303.144 159.443 303.154C158.257 303.194 157.036 303.103 155.897 303.284C154.751 303.464 153.615 303.899 152.752 304.671C151.866 305.443 151.397 306.519 151.285 307.751C148.345 327.453 145.07 349.415 141.558 372.961L141.513 373.26H141.21C131.891 373.263 122.221 373.266 112.292 373.27C107.329 373.27 102.299 373.271 97.2182 373.273H95.3105C94.6378 373.253 94.1343 373.28 93.6294 373.564C92.642 374.087 92.1497 375.372 92.5623 376.421C92.7511 376.941 93.1315 377.396 93.621 377.663C94.1287 377.951 94.6336 377.979 95.3147 377.959C96.6028 377.959 97.8951 377.959 99.1888 377.959C154.278 377.993 204.726 378.022 243.115 378.046L242.839 378.284C246.459 353.882 249.401 334.036 251.443 320.263C251.959 316.829 252.418 313.775 252.817 311.12C252.976 309.793 253.316 308.573 253.185 307.467C253.07 306.361 252.673 305.394 252.138 304.664C251.07 303.173 249.69 302.597 248.806 302.364C247.895 302.145 247.401 302.186 247.404 302.151Z" fill="#08322F"/>
<path d="M192.843 339.401C192.843 342.519 195.371 345.048 198.49 345.048C201.607 345.048 204.136 342.519 204.136 339.401C204.136 336.282 201.607 333.757 198.49 333.757C195.371 333.757 192.843 336.282 192.843 339.401Z" fill="white"/>
<path d="M144.864 377.716C144.992 377.738 147.863 361.001 151.276 340.34C154.688 319.671 157.352 302.903 157.224 302.882C157.097 302.86 154.227 319.596 150.813 340.264C147.401 360.926 144.737 377.696 144.864 377.716Z" fill="#08322F"/>
<path d="M295.211 193.726L296.889 193.755L297.005 187.113L295.215 187.081L295.133 191.794C294.902 192.196 294.479 192.398 293.878 192.387C293.249 192.376 292.947 192.036 292.959 191.336L293.034 187.043L291.258 187.012L291.182 191.361C291.168 192.158 291.353 192.763 291.724 193.175C292.094 193.587 292.622 193.806 293.335 193.819C294.118 193.832 294.724 193.577 295.181 193.054L295.211 193.726Z" fill="#083230" stroke="black" stroke-width="0.01" stroke-linejoin="round"/>
<path d="M301.592 192.508C301.408 192.631 301.155 192.696 300.806 192.69C300.442 192.684 300.164 192.595 299.943 192.423C299.736 192.252 299.615 191.998 299.606 191.69L297.928 191.661C297.921 192.066 298.027 192.432 298.272 192.786C298.518 193.14 298.849 193.412 299.279 193.615C299.709 193.832 300.196 193.939 300.756 193.948C301.581 193.963 302.255 193.779 302.779 193.424C303.303 193.056 303.577 192.571 303.588 191.956C303.603 191.117 303.138 190.507 302.207 190.141C301.901 190.038 301.539 189.919 301.093 189.828C300.661 189.736 300.342 189.619 300.162 189.504C299.968 189.374 299.887 189.219 299.89 189.023C299.894 188.814 299.981 188.633 300.137 188.51C300.307 188.373 300.546 188.307 300.84 188.313C301.19 188.319 301.44 188.407 301.605 188.578C301.77 188.748 301.836 188.959 301.832 189.211L303.607 189.242C303.618 188.613 303.376 188.091 302.879 187.677C302.383 187.276 301.715 187.069 300.862 187.054C300.079 187.04 299.432 187.225 298.936 187.608C298.44 187.991 298.193 188.49 298.183 189.078C298.165 190.084 298.937 190.769 300.511 191.132C300.985 191.239 301.332 191.357 301.54 191.486C301.762 191.616 301.857 191.785 301.853 192.009C301.849 192.219 301.762 192.385 301.592 192.508Z" fill="#083230" stroke="black" stroke-width="0.01" stroke-linejoin="round"/>
<path d="M308.52 188.936C308.711 189.163 308.818 189.473 308.811 189.865L308.809 190.004L306.348 189.961C306.411 189.515 306.557 189.182 306.785 188.948C306.999 188.714 307.295 188.593 307.644 188.599C308.022 188.606 308.313 188.723 308.52 188.936ZM309.274 193.775C309.726 193.573 310.094 193.286 310.367 192.913L309.517 191.919C309.116 192.416 308.581 192.644 307.896 192.632C307.448 192.624 307.087 192.492 306.812 192.222C306.522 191.965 306.347 191.612 306.298 191.177L310.535 191.251L310.548 190.524C310.567 189.462 310.329 188.646 309.808 188.063C309.3 187.481 308.592 187.189 307.683 187.173C307.068 187.162 306.534 187.293 306.054 187.564C305.573 187.85 305.202 188.249 304.928 188.762C304.667 189.289 304.53 189.888 304.519 190.545L304.516 190.727C304.498 191.72 304.792 192.522 305.383 193.134C305.988 193.732 306.78 194.053 307.759 194.071C308.304 194.08 308.809 193.977 309.274 193.775Z" fill="#083230" stroke="black" stroke-width="0.01" stroke-linejoin="round"/>
<path d="M315.379 187.377C315.198 187.332 315.017 187.301 314.821 187.298C314.192 187.287 313.697 187.586 313.323 188.181L313.295 187.397L311.617 187.368L311.501 194.01L313.277 194.041L313.353 189.692C313.57 189.234 314.008 189.018 314.679 189.03C314.861 189.033 315.084 189.051 315.321 189.097L315.379 187.377Z" fill="#083230" stroke="black" stroke-width="0.01" stroke-linejoin="round"/>
<path d="M316.165 187.447L316.049 194.089L317.825 194.12L317.906 189.436C318.166 189.007 318.547 188.803 319.05 188.812C319.428 188.819 319.692 188.907 319.857 189.078C320.022 189.249 320.101 189.53 320.094 189.908L320.02 194.159L321.796 194.19L321.871 189.897C321.871 189.071 321.7 188.453 321.372 188.028C321.03 187.616 320.516 187.397 319.803 187.385C319.006 187.371 318.371 187.653 317.885 188.232L317.843 187.476L316.165 187.447Z" fill="#083230" stroke="black" stroke-width="0.01" stroke-linejoin="round"/>
<path d="M324.913 192.789C324.748 192.647 324.681 192.464 324.685 192.24L324.687 192.142C324.753 191.528 325.234 191.228 326.129 191.244L326.786 191.255L326.766 192.402C326.665 192.596 326.495 192.747 326.269 192.855C326.043 192.963 325.804 193.029 325.539 193.024C325.273 193.019 325.064 192.946 324.913 192.789ZM328.789 194.312L328.791 194.214C328.615 193.875 328.539 193.398 328.55 192.769L328.601 189.888C328.614 189.147 328.386 188.556 327.904 188.142C327.436 187.714 326.782 187.506 325.971 187.492C325.425 187.483 324.935 187.558 324.498 187.746C324.061 187.921 323.721 188.166 323.477 188.498C323.234 188.815 323.102 189.177 323.095 189.554L324.871 189.585C324.876 189.334 324.977 189.14 325.147 189.003C325.317 188.866 325.556 188.8 325.85 188.805C326.186 188.811 326.436 188.899 326.586 189.098C326.751 189.282 326.817 189.521 326.811 189.829L326.804 190.221L325.993 190.206C325.001 190.189 324.242 190.358 323.718 190.726C323.194 191.095 322.919 191.635 322.907 192.335C322.897 192.908 323.098 193.387 323.525 193.772C323.938 194.157 324.48 194.362 325.137 194.374C325.823 194.386 326.386 194.158 326.828 193.676C326.852 193.914 326.904 194.125 326.985 194.28L328.789 194.312Z" fill="#083230" stroke="black" stroke-width="0.01" stroke-linejoin="round"/>
<path d="M330.003 187.689L329.887 194.331L331.663 194.362L331.745 189.663C331.976 189.248 332.343 189.044 332.847 189.053C333.21 189.059 333.474 189.148 333.611 189.318C333.762 189.503 333.841 189.784 333.834 190.161L333.76 194.399L335.536 194.43L335.602 189.857C335.821 189.357 336.189 189.111 336.72 189.121C337.098 189.127 337.362 189.216 337.499 189.4C337.649 189.571 337.714 189.851 337.708 190.229L337.634 194.466L339.41 194.497L339.484 190.246C339.499 189.407 339.342 188.775 339 188.349C338.643 187.923 338.116 187.704 337.388 187.692C336.535 187.677 335.858 188.001 335.385 188.664C335.075 187.987 334.494 187.641 333.627 187.626C332.83 187.612 332.196 187.881 331.71 188.46L331.667 187.718L330.003 187.689Z" fill="#083230" stroke="black" stroke-width="0.01" stroke-linejoin="round"/>
<path d="M344.603 189.566C344.795 189.793 344.902 190.103 344.895 190.494L344.893 190.634L342.431 190.591C342.495 190.145 342.641 189.812 342.869 189.578C343.083 189.344 343.378 189.223 343.728 189.229C344.106 189.236 344.397 189.353 344.603 189.566ZM345.358 194.405C345.809 194.203 346.178 193.916 346.45 193.543L345.6 192.549C345.2 193.046 344.665 193.274 343.979 193.262C343.532 193.254 343.171 193.122 342.896 192.851C342.606 192.595 342.431 192.242 342.382 191.807L346.619 191.881L346.632 191.154C346.651 190.091 346.413 189.276 345.892 188.693C345.384 188.111 344.676 187.819 343.767 187.803C343.152 187.792 342.618 187.923 342.138 188.194C341.657 188.48 341.286 188.879 341.012 189.391C340.751 189.918 340.614 190.518 340.603 191.175L340.6 191.357C340.582 192.349 340.876 193.152 341.467 193.764C342.072 194.362 342.864 194.683 343.842 194.7C344.388 194.71 344.893 194.607 345.358 194.405Z" fill="#083230" stroke="black" stroke-width="0.01" stroke-linejoin="round"/>
<path d="M352.052 190.312C352.325 189.925 352.692 189.721 353.168 189.73C353.335 189.732 353.489 189.763 353.656 189.822L353.339 192.726C353.221 193.06 353.063 193.309 352.878 193.473C352.694 193.652 352.51 193.733 352.3 193.729C351.993 193.724 351.772 193.58 351.637 193.298C351.502 193.016 351.467 192.609 351.518 192.065C351.616 191.297 351.794 190.713 352.052 190.312ZM357.271 188.654C356.922 187.837 356.373 187.184 355.64 186.737C354.906 186.277 354.015 186.051 352.994 186.034C351.987 186.016 351.074 186.238 350.255 186.713C349.435 187.189 348.794 187.877 348.317 188.764C347.826 189.65 347.556 190.667 347.48 191.798C347.418 192.972 347.554 193.982 347.917 194.841C348.279 195.701 348.842 196.354 349.589 196.801C350.351 197.248 351.27 197.488 352.346 197.507C352.78 197.514 353.2 197.466 353.622 197.375C354.057 197.285 354.395 197.165 354.649 197.001L354.428 196.046C354.16 196.167 353.837 196.274 353.458 196.337C353.079 196.4 352.729 196.436 352.393 196.43C351.093 196.408 350.135 195.999 349.505 195.191C348.862 194.382 348.602 193.259 348.683 191.819C348.756 190.856 348.966 190.02 349.329 189.285C349.705 188.55 350.205 187.985 350.827 187.59C351.449 187.21 352.166 187.012 352.949 187.026C354.222 187.048 355.166 187.456 355.795 188.237C356.425 189.017 356.7 190.113 356.605 191.552C356.564 192.265 356.415 192.836 356.155 193.265C355.896 193.708 355.571 193.912 355.193 193.905C354.955 193.901 354.775 193.814 354.666 193.644C354.557 193.475 354.519 193.222 354.567 192.901L354.951 189.355L354.564 189.082C354.149 188.809 353.662 188.661 353.075 188.651C352.599 188.643 352.149 188.775 351.739 189.047C351.328 189.32 350.972 189.719 350.697 190.246C350.422 190.773 350.243 191.371 350.148 192.041C350.063 192.865 350.164 193.538 350.49 194.047C350.803 194.556 351.26 194.816 351.862 194.826C352.519 194.838 353.055 194.554 353.485 193.987C353.606 194.283 353.798 194.497 354.047 194.655C354.31 194.813 354.602 194.888 354.966 194.895C355.763 194.909 356.398 194.612 356.884 194.005C357.37 193.398 357.636 192.563 357.711 191.515C357.771 190.439 357.62 189.486 357.271 188.654Z" fill="#083230" stroke="black" stroke-width="0.01" stroke-linejoin="round"/>
<path d="M360.806 190.059C361.064 189.713 361.403 189.552 361.822 189.559C362.354 189.568 362.742 189.785 362.972 190.194L362.923 192.991C362.679 193.393 362.284 193.582 361.738 193.572C361.319 193.565 361 193.391 360.754 193.051C360.523 192.697 360.405 192.22 360.415 191.619C360.427 190.933 360.563 190.404 360.806 190.059ZM358.641 191.532C358.622 192.566 358.86 193.396 359.338 194.034C359.831 194.658 360.469 194.991 361.266 195.005C361.937 195.016 362.472 194.788 362.9 194.334L362.894 194.697C362.886 195.159 362.74 195.506 362.47 195.753C362.213 196 361.834 196.119 361.372 196.111C360.743 196.1 360.202 195.853 359.777 195.342L358.961 196.419C359.193 196.717 359.539 196.975 359.997 197.179C360.469 197.383 360.942 197.489 361.418 197.497C362.061 197.508 362.636 197.406 363.116 197.191C363.595 196.976 363.979 196.647 364.252 196.232C364.511 195.803 364.66 195.302 364.67 194.714L364.782 188.296L363.174 188.268L363.093 188.882C362.696 188.385 362.127 188.123 361.4 188.111C360.575 188.096 359.912 188.392 359.412 189.013C358.926 189.62 358.66 190.441 358.642 191.462L358.641 191.532Z" fill="#083230" stroke="black" stroke-width="0.01" stroke-linejoin="round"/>
<path d="M366.148 188.32L366.032 194.962L367.808 194.993L367.89 190.294C368.121 189.879 368.489 189.675 368.992 189.684C369.356 189.69 369.62 189.779 369.757 189.949C369.907 190.134 369.987 190.415 369.98 190.792L369.906 195.029L371.682 195.06L371.748 190.488C371.966 189.988 372.334 189.742 372.866 189.752C373.243 189.758 373.507 189.847 373.644 190.031C373.795 190.202 373.86 190.482 373.853 190.86L373.78 195.097L375.555 195.128L375.63 190.877C375.644 190.038 375.487 189.406 375.145 188.98C374.789 188.554 374.261 188.335 373.534 188.323C372.681 188.308 372.004 188.632 371.531 189.295C371.221 188.618 370.639 188.272 369.772 188.257C368.975 188.243 368.341 188.512 367.855 189.091L367.812 188.349L366.148 188.32Z" fill="#083230" stroke="black" stroke-width="0.01" stroke-linejoin="round"/>
<path d="M378.701 193.728C378.536 193.585 378.469 193.402 378.473 193.179L378.475 193.081C378.541 192.467 379.022 192.167 379.917 192.183L380.574 192.194L380.554 193.341C380.453 193.535 380.282 193.686 380.057 193.794C379.831 193.902 379.592 193.968 379.326 193.963C379.061 193.958 378.852 193.885 378.701 193.728ZM382.577 195.251L382.579 195.153C382.403 194.814 382.327 194.337 382.338 193.708L382.389 190.827C382.402 190.086 382.174 189.494 381.692 189.08C381.224 188.653 380.57 188.445 379.759 188.431C379.213 188.422 378.722 188.497 378.285 188.685C377.849 188.859 377.509 189.105 377.265 189.437C377.022 189.754 376.89 190.116 376.883 190.493L378.659 190.524C378.663 190.273 378.765 190.078 378.935 189.942C379.105 189.805 379.344 189.739 379.638 189.744C379.973 189.75 380.224 189.838 380.374 190.037C380.539 190.221 380.604 190.46 380.599 190.768L380.592 191.159L379.781 191.145C378.788 191.128 378.03 191.297 377.506 191.665C376.982 192.034 376.707 192.574 376.695 193.274C376.685 193.847 376.886 194.326 377.313 194.711C377.726 195.096 378.268 195.301 378.925 195.313C379.61 195.325 380.174 195.097 380.616 194.615C380.64 194.853 380.692 195.064 380.773 195.219L382.577 195.251Z" fill="#083230" stroke="black" stroke-width="0.01" stroke-linejoin="round"/>
<path d="M384.061 187.569C384.24 187.74 384.49 187.828 384.784 187.833C385.077 187.839 385.331 187.759 385.515 187.594C385.7 187.43 385.788 187.208 385.793 186.928C385.797 186.662 385.717 186.451 385.539 186.266C385.36 186.095 385.123 186.007 384.816 186.002C384.508 185.996 384.269 186.076 384.084 186.241C383.899 186.419 383.812 186.628 383.807 186.893C383.802 187.173 383.882 187.398 384.061 187.569ZM385.665 188.66L383.875 188.629L383.759 195.271L385.549 195.303L385.665 188.66Z" fill="#083230" stroke="black" stroke-width="0.01" stroke-linejoin="round"/>
<path d="M389.05 185.922L387.26 185.89L387.095 195.33L388.885 195.361L389.05 185.922Z" fill="#083230" stroke="black" stroke-width="0.01" stroke-linejoin="round"/>
<path d="M390.729 195.197C390.907 195.382 391.143 195.47 391.437 195.475C391.731 195.48 391.97 195.401 392.169 195.222C392.354 195.058 392.455 194.836 392.46 194.556C392.465 194.262 392.371 194.037 392.193 193.852C392 193.681 391.764 193.579 391.47 193.573C391.177 193.568 390.937 193.662 390.753 193.827C390.554 194.005 390.452 194.227 390.447 194.521C390.442 194.8 390.536 195.026 390.729 195.197Z" fill="#083230" stroke="black" stroke-width="0.01" stroke-linejoin="round"/>
<path d="M395.838 193.72C395.634 193.422 395.544 192.931 395.556 192.246L395.56 192.05C395.571 191.379 395.692 190.891 395.907 190.587C396.122 190.297 396.432 190.149 396.852 190.156C397.187 190.162 397.451 190.279 397.657 190.492C397.849 190.719 397.956 191.001 397.964 191.351L399.628 191.38C399.628 190.582 399.387 189.949 398.892 189.465C398.397 188.994 397.73 188.745 396.905 188.73C395.954 188.714 395.193 189.008 394.637 189.6C394.081 190.206 393.801 191.012 393.783 192.047L393.781 192.159C393.763 193.222 394.028 194.066 394.563 194.677C395.098 195.287 395.847 195.608 396.798 195.625C397.302 195.634 397.765 195.53 398.188 195.341C398.611 195.139 398.952 194.851 399.196 194.478C399.455 194.104 399.574 193.701 399.595 193.254L397.931 193.225C397.912 193.518 397.796 193.754 397.597 193.932C397.384 194.11 397.117 194.19 396.795 194.184C396.362 194.176 396.043 194.031 395.838 193.72Z" fill="#083230" stroke="black" stroke-width="0.01" stroke-linejoin="round"/>
<path d="M402.497 190.758C402.741 190.427 403.093 190.265 403.527 190.273C403.96 190.28 404.293 190.454 404.539 190.808C404.771 191.148 404.874 191.625 404.863 192.255C404.85 192.982 404.73 193.497 404.486 193.829C404.228 194.16 403.89 194.308 403.457 194.3C403.023 194.293 402.676 194.119 402.444 193.793C402.226 193.453 402.109 192.962 402.12 192.333C402.133 191.619 402.267 191.104 402.497 190.758ZM400.345 192.26C400.327 193.308 400.592 194.152 401.154 194.778C401.717 195.403 402.481 195.724 403.431 195.741C404.396 195.757 405.171 195.463 405.741 194.858C406.325 194.252 406.619 193.432 406.637 192.411L406.645 191.964C406.591 191.012 406.283 190.265 405.733 189.71C405.169 189.14 404.447 188.862 403.552 188.846C402.909 188.835 402.361 188.966 401.88 189.237C401.4 189.508 401.015 189.907 400.755 190.42C400.494 190.933 400.358 191.518 400.346 192.176L400.345 192.26Z" fill="#083230" stroke="black" stroke-width="0.01" stroke-linejoin="round"/>
<path d="M407.799 189.047L407.683 195.689L409.459 195.72L409.541 191.021C409.772 190.606 410.139 190.402 410.643 190.411C411.006 190.417 411.27 190.506 411.407 190.676C411.558 190.861 411.637 191.142 411.63 191.519L411.556 195.756L413.332 195.787L413.398 191.214C413.617 190.715 413.985 190.469 414.516 190.479C414.894 190.485 415.158 190.574 415.295 190.758C415.445 190.929 415.511 191.209 415.504 191.587L415.43 195.824L417.206 195.855L417.28 191.604C417.295 190.765 417.138 190.133 416.796 189.707C416.439 189.281 415.912 189.062 415.185 189.05C414.331 189.035 413.654 189.359 413.181 190.022C412.871 189.345 412.29 188.999 411.423 188.984C410.626 188.97 409.992 189.239 409.506 189.818L409.463 189.076L407.799 189.047Z" fill="#083230" stroke="black" stroke-width="0.01" stroke-linejoin="round"/>
<path d="M312.558 232.895L314.405 234.14L316.488 230.867L318.6 234.266L320.446 232.951L318.013 229.86L321.733 228.825L321.048 226.713L317.523 228.14L317.761 224H315.481L315.719 228.056L312.097 226.601L311.411 228.699L315.062 229.734L312.558 232.895Z" fill="#083230" stroke="black" stroke-width="0.01" stroke-linejoin="round"/>
<path d="M323.331 232.895L325.178 234.14L327.261 230.867L329.373 234.266L331.219 232.951L328.786 229.86L332.506 228.825L331.821 226.713L328.296 228.14L328.534 224H326.254L326.492 228.056L322.87 226.601L322.185 228.699L325.835 229.734L323.331 232.895Z" fill="#083230" stroke="black" stroke-width="0.01" stroke-linejoin="round"/>
<path d="M334.104 232.895L335.951 234.14L338.034 230.867L340.146 234.266L341.992 232.951L339.559 229.86L343.279 228.825L342.594 226.713L339.069 228.14L339.307 224H337.027L337.265 228.056L333.643 226.601L332.958 228.699L336.608 229.734L334.104 232.895Z" fill="#083230" stroke="black" stroke-width="0.01" stroke-linejoin="round"/>
<path d="M344.877 232.895L346.724 234.14L348.807 230.867L350.919 234.266L352.765 232.951L350.332 229.86L354.052 228.825L353.367 226.713L349.842 228.14L350.08 224H347.8L348.038 228.056L344.416 226.601L343.731 228.699L347.381 229.734L344.877 232.895Z" fill="#083230" stroke="black" stroke-width="0.01" stroke-linejoin="round"/>
<path d="M355.65 232.895L357.497 234.14L359.58 230.867L361.692 234.266L363.539 232.951L361.105 229.86L364.825 228.825L364.14 226.713L360.615 228.14L360.853 224H358.573L358.811 228.056L355.189 226.601L354.504 228.699L358.154 229.734L355.65 232.895Z" fill="#083230" stroke="black" stroke-width="0.01" stroke-linejoin="round"/>
<path d="M366.423 232.895L368.27 234.14L370.353 230.867L372.465 234.266L374.312 232.951L371.878 229.86L375.598 228.825L374.913 226.713L371.388 228.14L371.626 224H369.346L369.584 228.056L365.962 226.601L365.277 228.699L368.927 229.734L366.423 232.895Z" fill="#083230" stroke="black" stroke-width="0.01" stroke-linejoin="round"/>
<path d="M377.196 232.895L379.043 234.14L381.126 230.867L383.238 234.266L385.085 232.951L382.651 229.86L386.371 228.825L385.686 226.713L382.161 228.14L382.399 224H380.119L380.357 228.056L376.735 226.601L376.05 228.699L379.7 229.734L377.196 232.895Z" fill="#083230" stroke="black" stroke-width="0.01" stroke-linejoin="round"/>
<path d="M387.969 232.895L389.816 234.14L391.899 230.867L394.011 234.266L395.857 232.951L393.424 229.86L397.144 228.825L396.459 226.713L392.934 228.14L393.172 224H390.892L391.13 228.056L387.508 226.601L386.823 228.699L390.473 229.734L387.969 232.895Z" fill="#083230" stroke="black" stroke-width="0.01" stroke-linejoin="round"/>
<path d="M262.613 148.738H153.666C150.536 148.738 147.999 151.274 147.999 154.403V204.035C147.999 207.165 150.536 209.702 153.666 209.702H199.371L209.078 222.151L217.168 209.702H262.613C265.741 209.702 268.278 207.165 268.278 204.035V154.403C268.278 151.274 265.741 148.738 262.613 148.738Z" fill="white"/>
<path d="M262.613 148.737C262.613 148.737 262.792 148.727 263.15 148.736C263.502 148.772 264.045 148.822 264.704 149.081C265.359 149.33 266.152 149.765 266.86 150.538C267.576 151.291 268.183 152.41 268.352 153.778C268.456 159.183 268.438 167.042 268.483 176.999C268.495 181.976 268.509 187.473 268.525 193.436C268.53 196.418 268.536 199.516 268.543 202.726C268.529 203.517 268.601 204.344 268.431 205.2C268.267 206.041 267.909 206.848 267.394 207.548C266.38 208.962 264.681 209.906 262.877 209.972C249.171 209.993 233.799 210.014 217.168 210.038L217.45 209.887C214.911 213.801 212.166 218.029 209.369 222.341L209.102 222.748L208.804 222.366C205.738 218.439 202.442 214.217 199.091 209.923L199.369 210.059C186.78 210.062 173.608 210.064 160.092 210.067C158.515 210.067 156.941 210.067 155.373 210.067C154.576 210.053 153.838 210.102 152.986 210.027C152.158 209.934 151.354 209.664 150.638 209.245C149.203 208.414 148.143 206.975 147.786 205.362C147.592 204.547 147.643 203.729 147.635 202.978V200.67C147.636 194.523 147.641 188.467 147.642 182.517C147.645 176.566 147.648 170.722 147.652 164.997C147.653 162.134 147.653 159.301 147.656 156.501L147.657 154.408C147.662 153.671 147.797 152.936 148.063 152.252C148.587 150.88 149.629 149.734 150.918 149.071C151.561 148.741 152.263 148.52 152.978 148.446C153.712 148.379 154.365 148.413 155.045 148.404C156.396 148.406 157.736 148.408 159.069 148.41C161.732 148.413 164.361 148.414 166.951 148.417C172.13 148.422 177.159 148.428 182.022 148.435C191.745 148.45 200.804 148.467 209.076 148.481C225.597 148.529 238.975 148.569 248.248 148.596C252.855 148.627 256.438 148.648 258.898 148.663C260.098 148.678 261.018 148.691 261.667 148.699C262.291 148.712 262.613 148.737 262.613 148.737C262.613 148.737 262.291 148.762 261.667 148.773C261.018 148.782 260.098 148.794 258.898 148.81C256.438 148.825 252.856 148.85 248.248 148.88C238.975 148.908 225.597 148.947 209.076 148.996C200.804 149.008 191.745 149.022 182.022 149.038C177.159 149.045 172.13 149.05 166.951 149.057C164.361 149.06 161.732 149.064 159.069 149.067C157.736 149.067 156.396 149.067 155.045 149.069C154.376 149.077 153.673 149.049 153.055 149.109C152.417 149.176 151.796 149.373 151.225 149.669C150.083 150.259 149.159 151.28 148.697 152.496C148.463 153.102 148.341 153.752 148.337 154.408L148.341 156.501C148.343 159.301 148.344 162.134 148.347 164.997C148.35 170.722 148.352 176.566 148.355 182.517C148.358 188.467 148.359 194.523 148.361 200.67L148.362 202.978C148.369 203.765 148.323 204.506 148.494 205.204C148.807 206.618 149.741 207.887 151.004 208.617C151.634 208.985 152.34 209.221 153.067 209.302C153.772 209.368 154.603 209.326 155.373 209.338C156.941 209.338 158.515 209.338 160.092 209.338C173.608 209.341 186.78 209.344 199.369 209.347H199.544L199.65 209.484C202.999 213.78 206.288 218.008 209.35 221.938L208.786 221.962C211.59 217.655 214.34 213.432 216.887 209.52L216.985 209.368H217.168C233.79 209.382 249.152 209.396 262.852 209.408C264.485 209.354 266.027 208.506 266.954 207.225C267.422 206.59 267.752 205.857 267.904 205.095C268.06 204.343 267.997 203.534 268.013 202.726C268.02 199.516 268.027 196.418 268.032 193.436C268.048 187.473 268.062 181.976 268.074 176.999C268.101 167.07 268.122 159.207 268.136 153.8C267.99 152.484 267.421 151.393 266.737 150.649C266.064 149.885 265.299 149.448 264.663 149.186C263.366 148.674 262.6 148.794 262.613 148.737Z" fill="#08322F"/>
<path d="M187.738 162.744V164.58H186.538V162.73L184.531 159.397H185.806L187.192 161.701L188.575 159.397H189.754L187.738 162.744Z" fill="#08322F"/>
<path d="M189.715 161.989C189.715 160.449 190.915 159.309 192.551 159.309C194.18 159.309 195.387 160.441 195.387 161.989C195.387 163.537 194.18 164.671 192.551 164.671C190.915 164.671 189.715 163.529 189.715 161.989ZM194.172 161.989C194.172 161.004 193.477 160.33 192.551 160.33C191.625 160.33 190.929 161.004 190.929 161.989C190.929 162.973 191.625 163.648 192.551 163.648C193.477 163.648 194.172 162.973 194.172 161.989Z" fill="#08322F"/>
<path d="M196.252 162.299V159.397H197.452V162.256C197.452 163.241 197.881 163.648 198.607 163.648C199.34 163.648 199.761 163.241 199.761 162.256V159.397H200.945V162.299C200.945 163.825 200.071 164.67 198.597 164.67C197.124 164.67 196.252 163.825 196.252 162.299Z" fill="#08322F"/>
<path d="M205.441 164.58L204.441 163.137H204.382H203.338V164.58H202.138V159.397H204.382C205.766 159.397 206.634 160.116 206.634 161.278C206.634 162.056 206.241 162.627 205.566 162.915L206.729 164.58H205.441ZM204.315 160.373H203.338V162.18H204.315C205.049 162.18 205.418 161.841 205.418 161.278C205.418 160.708 205.049 160.373 204.315 160.373Z" fill="#08322F"/>
<path d="M209.357 161.989C209.357 160.427 210.557 159.309 212.171 159.309C213.067 159.309 213.814 159.635 214.304 160.228L213.533 160.937C213.185 160.538 212.748 160.33 212.229 160.33C211.26 160.33 210.571 161.013 210.571 161.989C210.571 162.966 211.26 163.648 212.229 163.648C212.748 163.648 213.185 163.441 213.533 163.034L214.304 163.744C213.814 164.344 213.069 164.671 212.165 164.671C210.558 164.671 209.357 163.551 209.357 161.989Z" fill="#08322F"/>
<path d="M214.681 161.989C214.681 160.449 215.878 159.309 217.515 159.309C219.144 159.309 220.351 160.441 220.351 161.989C220.351 163.537 219.144 164.671 217.515 164.671C215.878 164.671 214.681 163.529 214.681 161.989ZM219.138 161.989C219.138 161.004 218.441 160.33 217.515 160.33C216.59 160.33 215.894 161.004 215.894 161.989C215.894 162.973 216.59 163.648 217.515 163.648C218.441 163.648 219.138 162.973 219.138 161.989Z" fill="#08322F"/>
<path d="M221.263 159.397H223.615C225.312 159.397 226.476 160.42 226.476 161.989C226.476 163.559 225.312 164.58 223.615 164.58H221.263V159.397ZM223.558 163.596C224.587 163.596 225.26 162.982 225.26 161.989C225.26 160.997 224.587 160.382 223.558 160.382H222.46V163.596H223.558Z" fill="#08322F"/>
<path d="M231.399 163.618V164.58H227.385V159.397H231.302V160.361H228.578V161.485H230.985V162.418H228.578V163.618H231.399Z" fill="#08322F"/>
<path d="M251.98 198.467H164.294C161.555 198.467 159.336 196.246 159.336 193.508V174.985C159.336 172.246 161.555 170.025 164.294 170.025H251.98C254.719 170.025 256.941 172.246 256.941 174.985V193.508C256.941 196.246 254.719 198.467 251.98 198.467Z" fill="#F2F1ED"/>
<path d="M179.176 185.987C179.176 188.506 177.229 190.138 174.592 190.138C170.972 190.138 169.064 187.541 169.064 183.232C169.064 178.569 171.544 176.169 175.183 176.169C176.365 176.169 177.467 176.366 178.313 176.877L177.899 177.684C177.19 177.232 176.227 177.055 175.183 177.055C172.095 177.055 170.069 179.081 170.069 183.075C170.069 183.489 170.088 184.098 170.186 184.729C170.757 182.919 172.488 181.895 174.573 181.895C177.329 181.895 179.176 183.508 179.176 185.987ZM178.173 186.008C178.173 184.039 176.758 182.759 174.436 182.759C172.173 182.759 170.618 184.197 170.618 186.048C170.618 187.66 171.976 189.274 174.554 189.274C176.699 189.274 178.173 187.994 178.173 186.008Z" fill="#FFDD00"/>
<path d="M197.46 186.224H194.568V190.041H193.585V186.224H185.733V185.495L193.21 176.27H194.332L186.993 185.338H193.604V181.973H194.568V185.338H197.46V186.224Z" fill="#FFDD00"/>
<path d="M212.752 186.165C212.752 188.448 211.099 190.14 207.931 190.14C205.905 190.14 204.035 189.393 203.071 188.289L203.583 187.523C204.429 188.487 206.042 189.215 207.931 189.215C210.411 189.215 211.729 188.035 211.729 186.165C211.729 184.316 210.47 183.115 207.715 183.115H206.849V182.387L210.923 177.172H203.583V176.268H212.221V176.976L208.09 182.27C211.217 182.347 212.752 183.922 212.752 186.165Z" fill="#FFDD00"/>
<path d="M229.4 176.27V176.976L223.477 190.041H222.375L228.239 177.173H220.508V179.81H219.523V176.27H229.4Z" fill="#FFDD00"/>
<path d="M236.428 183.155C236.428 178.846 238.652 176.169 241.82 176.169C244.987 176.169 247.211 178.846 247.211 183.155C247.211 187.464 244.987 190.138 241.82 190.138C238.652 190.138 236.428 187.464 236.428 183.155ZM246.208 183.155C246.208 179.317 244.417 177.094 241.82 177.094C239.222 177.094 237.432 179.317 237.432 183.155C237.432 186.992 239.222 189.215 241.82 189.215C244.417 189.215 246.208 186.992 246.208 183.155Z" fill="#FFDD00"/>
<path d="M507.504 430.404H299.074C294.147 430.404 290.154 426.413 290.154 421.485V313.597C290.154 308.67 294.147 304.677 299.074 304.677H507.504C512.429 304.677 516.424 308.67 516.424 313.597V421.485C516.424 426.413 512.429 430.404 507.504 430.404Z" fill="white"/>
<path d="M507.504 430.403C507.501 430.364 508.111 430.415 509.262 430.192C510.386 429.944 512.122 429.359 513.751 427.745C514.554 426.941 515.292 425.869 515.773 424.552C516.034 423.899 516.171 423.173 516.273 422.417C516.33 421.657 516.319 420.849 516.313 420.01C516.305 416.653 516.294 412.786 516.281 408.431C516.253 390.994 516.214 365.783 516.165 334.636C516.161 330.741 516.157 326.755 516.152 322.68C516.151 320.641 516.148 318.579 516.147 316.497C516.097 314.413 516.368 312.278 515.513 310.372C514.743 308.463 513.256 306.831 511.378 305.89C510.442 305.418 509.415 305.116 508.361 305.01C507.322 304.93 506.186 304.982 505.092 304.968C500.673 304.972 496.172 304.973 491.593 304.978C473.274 304.987 453.701 304.999 433.105 305.01C391.912 305.02 346.625 305.031 299.091 305.041C297.663 305.048 296.248 305.407 294.992 306.074C293.757 306.769 292.669 307.747 291.902 308.94C291.145 310.133 290.642 311.502 290.552 312.913C290.483 314.327 290.533 315.839 290.518 317.292C290.518 323.162 290.516 328.994 290.516 334.785C290.515 346.361 290.512 357.768 290.511 368.976C290.508 380.186 290.505 391.197 290.502 401.98C290.499 407.372 290.498 412.706 290.495 417.98C290.505 419.291 290.473 420.631 290.516 421.908C290.576 423.166 290.915 424.406 291.501 425.515C292.678 427.736 294.859 429.365 297.285 429.878C298.483 430.161 299.762 430.042 301.052 430.07C302.33 430.07 303.607 430.071 304.878 430.073C307.42 430.074 309.947 430.076 312.456 430.077C317.474 430.08 322.424 430.083 327.304 430.084C337.06 430.091 346.536 430.096 355.695 430.101C374.013 430.117 391.077 430.133 406.655 430.147C437.803 430.196 463.01 430.234 480.446 430.262C489.148 430.291 495.908 430.315 500.508 430.33C502.79 430.345 504.536 430.359 505.725 430.368C506.901 430.38 507.504 430.403 507.504 430.403C507.504 430.403 506.901 430.428 505.725 430.441C504.536 430.448 502.79 430.462 500.508 430.478C495.908 430.494 489.148 430.516 480.446 430.547C463.01 430.573 437.803 430.613 406.655 430.66C391.077 430.674 374.013 430.688 355.695 430.705C346.536 430.71 337.06 430.719 327.304 430.724C322.424 430.727 317.474 430.729 312.456 430.731C309.947 430.733 307.42 430.734 304.878 430.736C303.607 430.736 302.33 430.737 301.052 430.737C299.79 430.71 298.473 430.839 297.145 430.536C294.526 429.983 292.175 428.231 290.902 425.836C290.27 424.639 289.901 423.301 289.836 421.941C289.79 420.6 289.822 419.306 289.811 417.98C289.81 412.706 289.808 407.372 289.806 401.98C289.803 391.197 289.8 380.186 289.797 368.976C289.796 357.768 289.793 346.361 289.792 334.785C289.792 328.994 289.79 323.162 289.79 317.292C289.807 315.814 289.752 314.385 289.827 312.856C289.924 311.326 290.47 309.836 291.291 308.543C292.123 307.249 293.302 306.189 294.643 305.435C296.004 304.71 297.545 304.317 299.091 304.31C346.625 304.32 391.912 304.331 433.105 304.341C453.701 304.352 473.274 304.364 491.593 304.375C496.172 304.378 500.673 304.38 505.092 304.383C506.206 304.4 507.274 304.347 508.418 304.434C509.543 304.55 510.639 304.873 511.636 305.378C513.636 306.385 515.218 308.129 516.035 310.164C516.45 311.178 516.67 312.264 516.688 313.35C516.692 314.404 516.695 315.453 516.698 316.497C516.697 318.579 516.694 320.641 516.692 322.68C516.688 326.755 516.684 330.741 516.68 334.636C516.631 365.783 516.592 390.994 516.564 408.431C516.551 412.786 516.541 416.653 516.531 420.01C516.53 420.846 516.537 421.653 516.471 422.436C516.361 423.21 516.215 423.95 515.944 424.614C515.441 425.954 514.678 427.039 513.856 427.849C512.18 429.473 510.415 430.039 509.276 430.264C508.692 430.355 508.25 430.406 507.951 430.399C507.653 430.408 507.504 430.403 507.504 430.403Z" fill="#08322F"/>
<path d="M368.987 349.101V350.671H362.441V342.217H368.829V343.787H364.386V345.622H368.31V347.145H364.386V349.101H368.987Z" fill="#08322F"/>
<path d="M378.304 342.217V350.671H376.697L372.481 345.538V350.671H370.548V342.217H372.165L376.371 347.348V342.217H378.304Z" fill="#08322F"/>
<path d="M382.062 343.811H379.357V342.217H386.724V343.811H384.02V350.671H382.062V343.811Z" fill="#08322F"/>
<path d="M394.322 349.101V350.671H387.776V342.217H394.165V343.787H389.722V345.622H393.645V347.145H389.722V349.101H394.322Z" fill="#08322F"/>
<path d="M401.271 350.671L399.641 348.316H399.544H397.841V350.671H395.884V342.217H399.544C401.801 342.217 403.215 343.387 403.215 345.285C403.215 346.552 402.575 347.483 401.477 347.954L403.372 350.671H401.271ZM399.435 343.811H397.841V346.759H399.435C400.632 346.759 401.235 346.203 401.235 345.285C401.235 344.355 400.632 343.811 399.435 343.811Z" fill="#08322F"/>
<path d="M407.652 346.445C407.652 343.896 409.608 342.071 412.242 342.071C413.703 342.071 414.923 342.603 415.722 343.569L414.464 344.729C413.896 344.077 413.183 343.738 412.338 343.738C410.757 343.738 409.632 344.849 409.632 346.445C409.632 348.039 410.757 349.151 412.338 349.151C413.183 349.151 413.896 348.81 414.464 348.147L415.722 349.308C414.923 350.285 413.703 350.817 412.231 350.817C409.608 350.817 407.652 348.993 407.652 346.445Z" fill="#08322F"/>
<path d="M416.329 346.445C416.329 343.931 418.285 342.071 420.954 342.071C423.611 342.071 425.579 343.919 425.579 346.445C425.579 348.969 423.611 350.817 420.954 350.817C418.285 350.817 416.329 348.957 416.329 346.445ZM423.599 346.445C423.599 344.838 422.464 343.738 420.954 343.738C419.445 343.738 418.308 344.838 418.308 346.445C418.308 348.05 419.445 349.151 420.954 349.151C422.464 349.151 423.599 348.05 423.599 346.445Z" fill="#08322F"/>
<path d="M427.056 342.217H430.896C433.664 342.217 435.559 343.884 435.559 346.445C435.559 349.006 433.664 350.671 430.896 350.671H427.056V342.217ZM430.801 349.066C432.48 349.066 433.579 348.063 433.579 346.445C433.579 344.827 432.48 343.824 430.801 343.824H429.014V349.066H430.801Z" fill="#08322F"/>
<path d="M443.582 349.101V350.671H437.036V342.217H443.425V343.787H438.98V345.622H442.906V347.145H438.98V349.101H443.582Z" fill="#08322F"/>
<path d="M336.905 407.21H316.369C313.316 407.21 310.841 404.736 310.841 401.682V369.699C310.841 366.645 313.316 364.172 316.369 364.172H336.905C339.958 364.172 342.432 366.645 342.432 369.699V401.682C342.432 404.736 339.958 407.21 336.905 407.21Z" fill="#E7E7E1"/>
<path d="M494.54 406.712H474.004C470.951 406.712 468.475 404.238 468.475 401.185V369.201C468.475 366.147 470.951 363.674 474.004 363.674H494.54C497.593 363.674 500.067 366.147 500.067 369.201V401.185C500.067 404.238 497.593 406.712 494.54 406.712Z" fill="#E7E7E1"/>
<path d="M376.355 407.21H355.82C352.766 407.21 350.291 404.736 350.291 401.682V369.699C350.291 366.645 352.766 364.172 355.82 364.172H376.355C379.408 364.172 381.883 366.645 381.883 369.699V401.682C381.883 404.736 379.408 407.21 376.355 407.21Z" fill="#E7E7E1"/>
<path d="M415.806 407.21H395.271C392.217 407.21 389.743 404.736 389.743 401.682V369.699C389.743 366.645 392.217 364.172 395.271 364.172H415.806C418.86 364.172 421.331 366.645 421.331 369.699V401.682C421.331 404.736 418.86 407.21 415.806 407.21Z" fill="#E7E7E1"/>
<path d="M455.257 407.21H434.722C431.669 407.21 429.193 404.736 429.193 401.682V369.699C429.193 366.645 431.669 364.172 434.722 364.172H455.257C458.31 364.172 460.785 366.645 460.785 369.699V401.682C460.785 404.736 458.31 407.21 455.257 407.21Z" fill="#E7E7E1"/>
<path d="M332.814 396.347C332.814 396.548 329.537 396.71 325.494 396.71C321.449 396.71 318.173 396.548 318.173 396.347C318.173 396.145 321.449 395.983 325.494 395.983C329.537 395.983 332.814 396.145 332.814 396.347Z" fill="#FFDD00"/>
<path d="M307.944 317.222C307.944 319.115 306.41 320.649 304.519 320.649C302.627 320.649 301.094 319.115 301.094 317.222C301.094 315.331 302.627 313.796 304.519 313.796C306.41 313.796 307.944 315.331 307.944 317.222Z" fill="#08322F"/>
<path d="M317.82 317.222C317.82 319.115 316.285 320.649 314.393 320.649C312.501 320.649 310.966 319.115 310.966 317.222C310.966 315.331 312.501 313.796 314.393 313.796C316.285 313.796 317.82 315.331 317.82 317.222Z" fill="#08322F"/>
<path d="M327.512 317.222C327.512 319.115 325.979 320.649 324.087 320.649C322.194 320.649 320.662 319.115 320.662 317.222C320.662 315.331 322.194 313.796 324.087 313.796C325.979 313.796 327.512 315.331 327.512 317.222Z" fill="#08322F"/>
<path d="M516.761 326.877C516.761 327.077 466.102 327.239 403.624 327.239C341.124 327.239 290.476 327.077 290.476 326.877C290.476 326.674 341.124 326.512 403.624 326.512C466.102 326.512 516.761 326.674 516.761 326.877Z" fill="#08322F"/>
<path d="M591.259 82.6923V157.517H498.078V82.6923H591.259Z" fill="#F2F1EF"/>
<path d="M535.435 545.099C553.676 537.165 574.738 521.689 584.031 502.86C564.35 510.969 547.067 525.993 535.435 545.099Z" fill="#08322F"/>
<path d="M539.07 515.972C557.311 508.039 578.375 492.566 587.667 473.734C567.987 481.842 550.703 496.866 539.07 515.972Z" fill="#08322F"/>
<path d="M544.121 487.63C562.362 479.697 583.426 464.221 592.718 445.392C573.037 453.499 555.752 468.524 544.121 487.63Z" fill="#08322F"/>
<path d="M550.501 457.947C567.684 447.546 586.78 429.284 593.779 409.346C575.188 420.122 559.793 437.411 550.501 457.947Z" fill="#08322F"/>
<path d="M557.401 435.217C569.843 418.642 581.36 394.043 581.02 372.815C567.391 390.308 558.991 412.503 557.401 435.217Z" fill="#08322F"/>
<path d="M553.975 446.024C551.239 423.787 542.331 395.873 527.485 379.309C530.03 403.141 539.451 426.871 553.975 446.024Z" fill="#08322F"/>
<path d="M548.272 470.426C543.588 447.514 532.012 419.227 515.179 403.274C519.791 427.865 531.56 451.749 548.272 470.426Z" fill="#08322F"/>
<path d="M541.731 500.179C537.05 477.265 525.474 448.981 508.64 433.029C513.253 457.619 525.023 481.502 541.731 500.179Z" fill="#08322F"/>
<path d="M536.597 536.682C531.916 513.77 520.339 485.485 503.505 469.533C508.117 494.122 519.888 518.006 536.597 536.682Z" fill="#08322F"/>
<path d="M558.214 430.848C558.203 430.844 558.156 430.96 558.076 431.192C557.987 431.462 557.875 431.801 557.737 432.221C557.44 433.185 557.025 434.516 556.502 436.203C555.431 439.663 553.989 444.7 552.301 450.95C550.602 457.197 548.737 464.679 546.82 473.022C544.938 481.373 543.03 490.591 541.278 500.314C539.549 510.046 538.15 519.356 537.017 527.843C535.92 536.334 535.078 543.999 534.504 550.448C533.919 556.895 533.524 562.12 533.328 565.735C533.233 567.499 533.16 568.89 533.104 569.898C533.088 570.338 533.075 570.695 533.065 570.98C533.06 571.225 533.062 571.351 533.075 571.351C533.086 571.352 533.106 571.228 533.135 570.985C533.166 570.701 533.203 570.346 533.248 569.906C533.336 568.902 533.454 567.514 533.608 565.755C533.889 562.146 534.357 556.932 535.005 550.495C535.644 544.06 536.539 536.409 537.67 527.93C538.836 519.456 540.255 510.16 541.981 500.441C543.731 490.727 545.622 481.517 547.465 473.166C549.344 464.824 551.154 457.336 552.79 451.077C554.413 444.817 555.782 439.762 556.769 436.282C557.237 434.578 557.607 433.235 557.874 432.264C557.985 431.835 558.074 431.49 558.146 431.212C558.203 430.975 558.227 430.851 558.214 430.848Z" fill="#08322F"/>
<path d="M526.297 557.754C532.997 541.026 537.16 517.848 532.206 500.283C524.724 518.055 522.622 538.498 526.297 557.754Z" fill="#08322F"/>
<path d="M512.051 537.574C518.751 520.846 522.916 497.668 517.962 480.106C510.478 497.878 508.375 518.317 512.051 537.574Z" fill="#08322F"/>
<path d="M499.114 516.953C505.813 500.225 509.976 477.049 505.022 459.484C497.54 477.256 495.438 497.697 499.114 516.953Z" fill="#08322F"/>
<path d="M486.235 494.65C490.889 477.099 492.27 453.501 485.284 436.75C479.977 455.445 480.315 476.04 486.235 494.65Z" fill="#08322F"/>
<path d="M477.608 476.258C475.863 458.019 469.008 435.478 456.79 422.719C458.328 442.289 465.735 461.333 477.608 476.258Z" fill="#08322F"/>
<path d="M481.622 485.095C467.362 473.28 446.11 462.008 427.632 461.546C442.675 474.462 461.877 482.84 481.622 485.095Z" fill="#08322F"/>
<path d="M491.927 503.733C476.095 492.769 452.991 483.01 433.643 484.216C450.381 496.25 471.115 503.191 491.927 503.733Z" fill="#08322F"/>
<path d="M504.747 526.184C488.913 515.222 465.811 505.462 446.464 506.667C463.202 518.701 483.933 525.643 504.747 526.184Z" fill="#08322F"/>
<path d="M522.251 551.85C506.416 540.888 483.315 531.127 463.966 532.333C480.706 544.366 501.437 551.31 522.251 551.85Z" fill="#08322F"/>
<path d="M475.635 473.054C475.624 473.06 475.66 473.16 475.74 473.351C475.838 473.578 475.958 473.853 476.106 474.191C476.467 474.975 476.959 476.045 477.58 477.395C478.86 480.177 480.802 484.16 483.278 489.044C488.227 498.812 495.478 512.107 504.34 526.281C508.783 533.363 513.198 539.99 517.32 545.945C521.475 551.878 525.308 557.153 528.635 561.503C531.948 565.863 534.691 569.342 536.638 571.706C537.585 572.853 538.333 573.759 538.882 574.424C539.123 574.704 539.318 574.933 539.48 575.121C539.616 575.275 539.691 575.351 539.701 575.344C539.71 575.336 539.654 575.246 539.534 575.077C539.388 574.878 539.209 574.634 538.99 574.339C538.465 573.654 537.75 572.72 536.847 571.541C534.965 569.127 532.282 565.606 529.02 561.212C525.746 556.831 521.958 551.531 517.838 545.587C513.749 539.621 509.356 532.991 504.919 525.919C496.07 511.765 488.76 498.526 483.705 488.823C481.178 483.971 479.171 480.024 477.818 477.279C477.148 475.954 476.619 474.902 476.23 474.133C476.059 473.806 475.917 473.54 475.802 473.321C475.702 473.141 475.646 473.049 475.635 473.054Z" fill="#08322F"/>
<path d="M491.12 558.155H568.267V573.025H560.34L553.663 615.431H505.976L499.11 573.025H491.12V558.155Z" fill="#FFDD00"/>
<path d="M491.12 572.713C491.12 572.517 508.267 572.355 529.413 572.355C550.566 572.355 567.71 572.517 567.71 572.713C567.71 572.912 550.566 573.073 529.413 573.073C508.267 573.073 491.12 572.912 491.12 572.713Z" fill="#08322F"/>
</g>
</g>
<defs>
<clipPath id="clip0_28_14">
<rect width="600" height="620.979" fill="white"/>
</clipPath>
</defs>
</svg>
